<svg xmlns="http://www.w3.org/2000/svg" xmlns:xlink="http://www.w3.org/1999/xlink" width="90" height="90" viewBox="0 0 90 90">
  <defs>
    <clipPath id="clip-path">
      <path id="Path_18" data-name="Path 18" d="M1166.764,252.607l-2.229-2.855,10.029-7.661,17.4,22.978-10.152,7.306-3.627-4.7Z" transform="translate(-1164.536 -242.09)" fill="#75b1ff" stroke="#707070" stroke-width="1"/>
    </clipPath>
    <clipPath id="clip-path-2">
      <path id="Path_19" data-name="Path 19" d="M1166.764,252.607l-2.229-2.855,10.029-7.661,17.4,22.978-10.152,7.306-3.627-4.7Z" transform="translate(-1164.536 -242.09)" fill="#fff" stroke="#707070" stroke-width="1"/>
    </clipPath>
    <clipPath id="clip-path-3">
      <path id="Path_20" data-name="Path 20" d="M921.2,272.018l16.65-21.745L927.993,242l-16.749,23,9.8,7.247Z" transform="translate(-911.243 -241.996)" fill="#fff" stroke="#707070" stroke-width="1"/>
    </clipPath>
  </defs>
  <g id="Group_34957" data-name="Group 34957" transform="translate(-1303 -642)">
    <rect id="Rectangle_8402" data-name="Rectangle 8402" width="90" height="90" rx="14" transform="translate(1303 642)" fill="#fa8733"/>
    <g id="Group_28" data-name="Group 28" transform="translate(1309 662)">
      <path id="noun_hand_shake_821752" data-name="noun_hand shake_821752" d="M76.029,52.113l9.389-7.15L68.914,23.3l-9.386,7.151.332.434H41.4c-1.217,0-4.174.265-5.825,2.535l-2.928-1.345,1.237-1.625L24.5,23.3,7.994,44.962l9.389,7.15,1.8-2.361,2.136,1.631-.28.384a4.636,4.636,0,0,0-.858,3.469,4.475,4.475,0,0,0,4.438,3.827,4.609,4.609,0,0,0,.909-.109A4.553,4.553,0,0,0,27.243,63.6a4.458,4.458,0,0,0,2.659.869,4.562,4.562,0,0,0,1.285-.2,4.6,4.6,0,0,0,0,1.158A4.471,4.471,0,0,0,35.634,69.3a4.659,4.659,0,0,0,3-1.106,4.445,4.445,0,0,0,4.394,3.653A4.608,4.608,0,0,0,45.6,71.03l.8.575a4.611,4.611,0,0,0,2.714.884,4.73,4.73,0,0,0,.757-.061,4.485,4.485,0,0,0,2.944-1.816,4.425,4.425,0,0,0,.812-2.876l.107.079a4.681,4.681,0,0,0,2.725.876,4.464,4.464,0,0,0,4.465-5.154,4.647,4.647,0,0,0,1.65.318,4.486,4.486,0,0,0,4.46-5.288,4.723,4.723,0,0,0,1.288.189,4.5,4.5,0,0,0,4.462-5.292A4.62,4.62,0,0,0,71.5,51l2.333-1.772ZM68.606,25.581,83.139,44.654l-6.8,5.183L61.806,30.763ZM17.075,49.838l-6.8-5.183L24.8,25.582l6.8,5.182Zm5.843,7.047a2.867,2.867,0,0,1-1.132-1.893,3.026,3.026,0,0,1,.565-2.267l1.487-2.053a3.046,3.046,0,0,1,2.442-1.241,2.845,2.845,0,0,1,2.832,2.447,3.035,3.035,0,0,1-.565,2.265l-.128.176-1.488,2.02A3.051,3.051,0,0,1,22.918,56.886Zm5.287,5.406a2.978,2.978,0,0,1-.576-4.158l.624-.847c.036-.046.086-.081.12-.129l1.4-1.934,2.1-2.855a3.043,3.043,0,0,1,2.437-1.237,2.842,2.842,0,0,1,1.7.554,2.976,2.976,0,0,1,.585,4.149L35.514,57.3l-3.17,4.3A3.061,3.061,0,0,1,28.205,62.291Zm5.733,4.829A2.868,2.868,0,0,1,32.8,65.193a3.025,3.025,0,0,1,.563-2.225l3.7-5.034L37.9,56.8a.012.012,0,0,1,0-.006l1.964-2.671A3.041,3.041,0,0,1,42.3,52.89a2.848,2.848,0,0,1,2.836,2.478,3.034,3.034,0,0,1-.563,2.228L42.3,60.69c-.036.046-.083.081-.117.129l-2.735,3.732c-.02.026-.032.058-.051.086l-1.323,1.8A3.051,3.051,0,0,1,33.938,67.121Zm7.39,2.545a2.964,2.964,0,0,1-.616-4.078l2.884-3.92a3.037,3.037,0,0,1,2.335-1.126,2.84,2.84,0,0,1,1.692.55,2.973,2.973,0,0,1,.577,4.159l-2.735,3.731A3.048,3.048,0,0,1,41.328,69.666Zm10.166,0a2.875,2.875,0,0,1-1.888,1.162,3.023,3.023,0,0,1-2.26-.536l-.536-.387,2.7-3.687a4.611,4.611,0,0,0,.557-1.029l1.252.9A2.934,2.934,0,0,1,51.494,69.661Zm19.2-13.733a2.97,2.97,0,0,1-4.15.626l-5.3-3.782-1.9-1.363,0,0-2.275-1.623-.942,1.323,4.338,3.093L64.205,56.9a2.928,2.928,0,1,1-3.41,4.757l-4.343-3.09h0L52.743,55.9l-.948,1.32,6.289,4.517a2.925,2.925,0,1,1-3.408,4.752l-2.233-1.6a4.847,4.847,0,0,0-.747-.68l-1.3-.928a4.521,4.521,0,0,0-1.812-3.5A4.438,4.438,0,0,0,45.559,59l.325-.443a4.627,4.627,0,0,0,.864-3.414,4.474,4.474,0,0,0-1.785-3.009,4.721,4.721,0,0,0-6.29.9,4.462,4.462,0,0,0-1.7-2.658,4.719,4.719,0,0,0-6.332.949,4.452,4.452,0,0,0-1.7-2.652,4.731,4.731,0,0,0-6.414,1.04l-.253.353L20.165,48.46,31.635,33.4,34.6,34.764,32.924,37.1a4.627,4.627,0,0,0-.857,3.469,4.478,4.478,0,0,0,5.124,3.771,4.638,4.638,0,0,0,3.063-1.848l2.481-3.428,4.14-.015c.559,3.255,3.657,6.144,6.787,6.144h7.021L69.954,51.8a3.031,3.031,0,0,1,1.225,1.944A2.874,2.874,0,0,1,70.691,55.928Zm-.514-5.967-8.974-6.4H53.663c-2.532,0-5.131-2.659-5.247-5.368l-.036-.78-6.475.022-2.962,4.09a3.009,3.009,0,0,1-1.993,1.2,2.854,2.854,0,0,1-3.276-2.407,3.028,3.028,0,0,1,.565-2.269l2.553-3.563c1.237-1.833,3.84-1.975,4.608-1.975H61.1L72.846,47.934Z" transform="translate(-7.427 -22.123)" fill="#fff"/>
      <g id="Mask_Group_2" data-name="Mask Group 2" transform="translate(51.48 0.019)" clip-path="url(#clip-path)">
        <path id="noun_hand_shake_821752-2" data-name="noun_hand shake_821752" d="M76.029,52.113l9.389-7.15L68.914,23.3l-9.386,7.151.332.434H41.4c-1.217,0-4.174.265-5.825,2.535l-2.928-1.345,1.237-1.625L24.5,23.3,7.994,44.962l9.389,7.15,1.8-2.361,2.136,1.631-.28.384a4.636,4.636,0,0,0-.858,3.469,4.475,4.475,0,0,0,4.438,3.827,4.609,4.609,0,0,0,.909-.109A4.553,4.553,0,0,0,27.243,63.6a4.458,4.458,0,0,0,2.659.869,4.562,4.562,0,0,0,1.285-.2,4.6,4.6,0,0,0,0,1.158A4.471,4.471,0,0,0,35.634,69.3a4.659,4.659,0,0,0,3-1.106,4.445,4.445,0,0,0,4.394,3.653A4.608,4.608,0,0,0,45.6,71.03l.8.575a4.611,4.611,0,0,0,2.714.884,4.73,4.73,0,0,0,.757-.061,4.485,4.485,0,0,0,2.944-1.816,4.425,4.425,0,0,0,.812-2.876l.107.079a4.681,4.681,0,0,0,2.725.876,4.464,4.464,0,0,0,4.465-5.154,4.647,4.647,0,0,0,1.65.318,4.486,4.486,0,0,0,4.46-5.288,4.723,4.723,0,0,0,1.288.189,4.5,4.5,0,0,0,4.462-5.292A4.62,4.62,0,0,0,71.5,51l2.333-1.772ZM68.606,25.581,83.139,44.654l-6.8,5.183L61.806,30.763ZM17.075,49.838l-6.8-5.183L24.8,25.582l6.8,5.182Zm5.843,7.047a2.867,2.867,0,0,1-1.132-1.893,3.026,3.026,0,0,1,.565-2.267l1.487-2.053a3.046,3.046,0,0,1,2.442-1.241,2.845,2.845,0,0,1,2.832,2.447,3.035,3.035,0,0,1-.565,2.265l-.128.176-1.488,2.02A3.051,3.051,0,0,1,22.918,56.886Zm5.287,5.406a2.978,2.978,0,0,1-.576-4.158l.624-.847c.036-.046.086-.081.12-.129l1.4-1.934,2.1-2.855a3.043,3.043,0,0,1,2.437-1.237,2.842,2.842,0,0,1,1.7.554,2.976,2.976,0,0,1,.585,4.149L35.514,57.3l-3.17,4.3A3.061,3.061,0,0,1,28.205,62.291Zm5.733,4.829A2.868,2.868,0,0,1,32.8,65.193a3.025,3.025,0,0,1,.563-2.225l3.7-5.034L37.9,56.8a.012.012,0,0,1,0-.006l1.964-2.671A3.041,3.041,0,0,1,42.3,52.89a2.848,2.848,0,0,1,2.836,2.478,3.034,3.034,0,0,1-.563,2.228L42.3,60.69c-.036.046-.083.081-.117.129l-2.735,3.732c-.02.026-.032.058-.051.086l-1.323,1.8A3.051,3.051,0,0,1,33.938,67.121Zm7.39,2.545a2.964,2.964,0,0,1-.616-4.078l2.884-3.92a3.037,3.037,0,0,1,2.335-1.126,2.84,2.84,0,0,1,1.692.55,2.973,2.973,0,0,1,.577,4.159l-2.735,3.731A3.048,3.048,0,0,1,41.328,69.666Zm10.166,0a2.875,2.875,0,0,1-1.888,1.162,3.023,3.023,0,0,1-2.26-.536l-.536-.387,2.7-3.687a4.611,4.611,0,0,0,.557-1.029l1.252.9A2.934,2.934,0,0,1,51.494,69.661Zm19.2-13.733a2.97,2.97,0,0,1-4.15.626l-5.3-3.782-1.9-1.363,0,0-2.275-1.623-.942,1.323,4.338,3.093L64.205,56.9a2.928,2.928,0,1,1-3.41,4.757l-4.343-3.09h0L52.743,55.9l-.948,1.32,6.289,4.517a2.925,2.925,0,1,1-3.408,4.752l-2.233-1.6a4.847,4.847,0,0,0-.747-.68l-1.3-.928a4.521,4.521,0,0,0-1.812-3.5A4.438,4.438,0,0,0,45.559,59l.325-.443a4.627,4.627,0,0,0,.864-3.414,4.474,4.474,0,0,0-1.785-3.009,4.721,4.721,0,0,0-6.29.9,4.462,4.462,0,0,0-1.7-2.658,4.719,4.719,0,0,0-6.332.949,4.452,4.452,0,0,0-1.7-2.652,4.731,4.731,0,0,0-6.414,1.04l-.253.353L20.165,48.46,31.635,33.4,34.6,34.764,32.924,37.1a4.627,4.627,0,0,0-.857,3.469,4.478,4.478,0,0,0,5.124,3.771,4.638,4.638,0,0,0,3.063-1.848l2.481-3.428,4.14-.015c.559,3.255,3.657,6.144,6.787,6.144h7.021L69.954,51.8a3.031,3.031,0,0,1,1.225,1.944A2.874,2.874,0,0,1,70.691,55.928Zm-.514-5.967-8.974-6.4H53.663c-2.532,0-5.131-2.659-5.247-5.368l-.036-.78-6.475.022-2.962,4.09a3.009,3.009,0,0,1-1.993,1.2,2.854,2.854,0,0,1-3.276-2.407,3.028,3.028,0,0,1,.565-2.269l2.553-3.563c1.237-1.833,3.84-1.975,4.608-1.975H61.1L72.846,47.934Z" transform="translate(-58.908 -22.143)" fill="#75b1ff"/>
      </g>
      <g id="Mask_Group_3" data-name="Mask Group 3" transform="translate(51.48 0.019)" clip-path="url(#clip-path-2)">
        <path id="noun_hand_shake_821752-3" data-name="noun_hand shake_821752" d="M76.029,52.113l9.389-7.15L68.914,23.3l-9.386,7.151.332.434H41.4c-1.217,0-4.174.265-5.825,2.535l-2.928-1.345,1.237-1.625L24.5,23.3,7.994,44.962l9.389,7.15,1.8-2.361,2.136,1.631-.28.384a4.636,4.636,0,0,0-.858,3.469,4.475,4.475,0,0,0,4.438,3.827,4.609,4.609,0,0,0,.909-.109A4.553,4.553,0,0,0,27.243,63.6a4.458,4.458,0,0,0,2.659.869,4.562,4.562,0,0,0,1.285-.2,4.6,4.6,0,0,0,0,1.158A4.471,4.471,0,0,0,35.634,69.3a4.659,4.659,0,0,0,3-1.106,4.445,4.445,0,0,0,4.394,3.653A4.608,4.608,0,0,0,45.6,71.03l.8.575a4.611,4.611,0,0,0,2.714.884,4.73,4.73,0,0,0,.757-.061,4.485,4.485,0,0,0,2.944-1.816,4.425,4.425,0,0,0,.812-2.876l.107.079a4.681,4.681,0,0,0,2.725.876,4.464,4.464,0,0,0,4.465-5.154,4.647,4.647,0,0,0,1.65.318,4.486,4.486,0,0,0,4.46-5.288,4.723,4.723,0,0,0,1.288.189,4.5,4.5,0,0,0,4.462-5.292A4.62,4.62,0,0,0,71.5,51l2.333-1.772ZM68.606,25.581,83.139,44.654l-6.8,5.183L61.806,30.763ZM17.075,49.838l-6.8-5.183L24.8,25.582l6.8,5.182Zm5.843,7.047a2.867,2.867,0,0,1-1.132-1.893,3.026,3.026,0,0,1,.565-2.267l1.487-2.053a3.046,3.046,0,0,1,2.442-1.241,2.845,2.845,0,0,1,2.832,2.447,3.035,3.035,0,0,1-.565,2.265l-.128.176-1.488,2.02A3.051,3.051,0,0,1,22.918,56.886Zm5.287,5.406a2.978,2.978,0,0,1-.576-4.158l.624-.847c.036-.046.086-.081.12-.129l1.4-1.934,2.1-2.855a3.043,3.043,0,0,1,2.437-1.237,2.842,2.842,0,0,1,1.7.554,2.976,2.976,0,0,1,.585,4.149L35.514,57.3l-3.17,4.3A3.061,3.061,0,0,1,28.205,62.291Zm5.733,4.829A2.868,2.868,0,0,1,32.8,65.193a3.025,3.025,0,0,1,.563-2.225l3.7-5.034L37.9,56.8a.012.012,0,0,1,0-.006l1.964-2.671A3.041,3.041,0,0,1,42.3,52.89a2.848,2.848,0,0,1,2.836,2.478,3.034,3.034,0,0,1-.563,2.228L42.3,60.69c-.036.046-.083.081-.117.129l-2.735,3.732c-.02.026-.032.058-.051.086l-1.323,1.8A3.051,3.051,0,0,1,33.938,67.121Zm7.39,2.545a2.964,2.964,0,0,1-.616-4.078l2.884-3.92a3.037,3.037,0,0,1,2.335-1.126,2.84,2.84,0,0,1,1.692.55,2.973,2.973,0,0,1,.577,4.159l-2.735,3.731A3.048,3.048,0,0,1,41.328,69.666Zm10.166,0a2.875,2.875,0,0,1-1.888,1.162,3.023,3.023,0,0,1-2.26-.536l-.536-.387,2.7-3.687a4.611,4.611,0,0,0,.557-1.029l1.252.9A2.934,2.934,0,0,1,51.494,69.661Zm19.2-13.733a2.97,2.97,0,0,1-4.15.626l-5.3-3.782-1.9-1.363,0,0-2.275-1.623-.942,1.323,4.338,3.093L64.205,56.9a2.928,2.928,0,1,1-3.41,4.757l-4.343-3.09h0L52.743,55.9l-.948,1.32,6.289,4.517a2.925,2.925,0,1,1-3.408,4.752l-2.233-1.6a4.847,4.847,0,0,0-.747-.68l-1.3-.928a4.521,4.521,0,0,0-1.812-3.5A4.438,4.438,0,0,0,45.559,59l.325-.443a4.627,4.627,0,0,0,.864-3.414,4.474,4.474,0,0,0-1.785-3.009,4.721,4.721,0,0,0-6.29.9,4.462,4.462,0,0,0-1.7-2.658,4.719,4.719,0,0,0-6.332.949,4.452,4.452,0,0,0-1.7-2.652,4.731,4.731,0,0,0-6.414,1.04l-.253.353L20.165,48.46,31.635,33.4,34.6,34.764,32.924,37.1a4.627,4.627,0,0,0-.857,3.469,4.478,4.478,0,0,0,5.124,3.771,4.638,4.638,0,0,0,3.063-1.848l2.481-3.428,4.14-.015c.559,3.255,3.657,6.144,6.787,6.144h7.021L69.954,51.8a3.031,3.031,0,0,1,1.225,1.944A2.874,2.874,0,0,1,70.691,55.928Zm-.514-5.967-8.974-6.4H53.663c-2.532,0-5.131-2.659-5.247-5.368l-.036-.78-6.475.022-2.962,4.09a3.009,3.009,0,0,1-1.993,1.2,2.854,2.854,0,0,1-3.276-2.407,3.028,3.028,0,0,1,.565-2.269l2.553-3.563c1.237-1.833,3.84-1.975,4.608-1.975H61.1L72.846,47.934Z" transform="translate(-58.908 -22.143)" fill="#fff"/>
      </g>
      <g id="Mask_Group_4" data-name="Mask Group 4" transform="translate(0)" clip-path="url(#clip-path-3)">
        <path id="noun_hand_shake_821752-4" data-name="noun_hand shake_821752" d="M76.029,52.113l9.389-7.15L68.914,23.3l-9.386,7.151.332.434H41.4c-1.217,0-4.174.265-5.825,2.535l-2.928-1.345,1.237-1.625L24.5,23.3,7.994,44.962l9.389,7.15,1.8-2.361,2.136,1.631-.28.384a4.636,4.636,0,0,0-.858,3.469,4.475,4.475,0,0,0,4.438,3.827,4.609,4.609,0,0,0,.909-.109A4.553,4.553,0,0,0,27.243,63.6a4.458,4.458,0,0,0,2.659.869,4.562,4.562,0,0,0,1.285-.2,4.6,4.6,0,0,0,0,1.158A4.471,4.471,0,0,0,35.634,69.3a4.659,4.659,0,0,0,3-1.106,4.445,4.445,0,0,0,4.394,3.653A4.608,4.608,0,0,0,45.6,71.03l.8.575a4.611,4.611,0,0,0,2.714.884,4.73,4.73,0,0,0,.757-.061,4.485,4.485,0,0,0,2.944-1.816,4.425,4.425,0,0,0,.812-2.876l.107.079a4.681,4.681,0,0,0,2.725.876,4.464,4.464,0,0,0,4.465-5.154,4.647,4.647,0,0,0,1.65.318,4.486,4.486,0,0,0,4.46-5.288,4.723,4.723,0,0,0,1.288.189,4.5,4.5,0,0,0,4.462-5.292A4.62,4.62,0,0,0,71.5,51l2.333-1.772ZM68.606,25.581,83.139,44.654l-6.8,5.183L61.806,30.763ZM17.075,49.838l-6.8-5.183L24.8,25.582l6.8,5.182Zm5.843,7.047a2.867,2.867,0,0,1-1.132-1.893,3.026,3.026,0,0,1,.565-2.267l1.487-2.053a3.046,3.046,0,0,1,2.442-1.241,2.845,2.845,0,0,1,2.832,2.447,3.035,3.035,0,0,1-.565,2.265l-.128.176-1.488,2.02A3.051,3.051,0,0,1,22.918,56.886Zm5.287,5.406a2.978,2.978,0,0,1-.576-4.158l.624-.847c.036-.046.086-.081.12-.129l1.4-1.934,2.1-2.855a3.043,3.043,0,0,1,2.437-1.237,2.842,2.842,0,0,1,1.7.554,2.976,2.976,0,0,1,.585,4.149L35.514,57.3l-3.17,4.3A3.061,3.061,0,0,1,28.205,62.291Zm5.733,4.829A2.868,2.868,0,0,1,32.8,65.193a3.025,3.025,0,0,1,.563-2.225l3.7-5.034L37.9,56.8a.012.012,0,0,1,0-.006l1.964-2.671A3.041,3.041,0,0,1,42.3,52.89a2.848,2.848,0,0,1,2.836,2.478,3.034,3.034,0,0,1-.563,2.228L42.3,60.69c-.036.046-.083.081-.117.129l-2.735,3.732c-.02.026-.032.058-.051.086l-1.323,1.8A3.051,3.051,0,0,1,33.938,67.121Zm7.39,2.545a2.964,2.964,0,0,1-.616-4.078l2.884-3.92a3.037,3.037,0,0,1,2.335-1.126,2.84,2.84,0,0,1,1.692.55,2.973,2.973,0,0,1,.577,4.159l-2.735,3.731A3.048,3.048,0,0,1,41.328,69.666Zm10.166,0a2.875,2.875,0,0,1-1.888,1.162,3.023,3.023,0,0,1-2.26-.536l-.536-.387,2.7-3.687a4.611,4.611,0,0,0,.557-1.029l1.252.9A2.934,2.934,0,0,1,51.494,69.661Zm19.2-13.733a2.97,2.97,0,0,1-4.15.626l-5.3-3.782-1.9-1.363,0,0-2.275-1.623-.942,1.323,4.338,3.093L64.205,56.9a2.928,2.928,0,1,1-3.41,4.757l-4.343-3.09h0L52.743,55.9l-.948,1.32,6.289,4.517a2.925,2.925,0,1,1-3.408,4.752l-2.233-1.6a4.847,4.847,0,0,0-.747-.68l-1.3-.928a4.521,4.521,0,0,0-1.812-3.5A4.438,4.438,0,0,0,45.559,59l.325-.443a4.627,4.627,0,0,0,.864-3.414,4.474,4.474,0,0,0-1.785-3.009,4.721,4.721,0,0,0-6.29.9,4.462,4.462,0,0,0-1.7-2.658,4.719,4.719,0,0,0-6.332.949,4.452,4.452,0,0,0-1.7-2.652,4.731,4.731,0,0,0-6.414,1.04l-.253.353L20.165,48.46,31.635,33.4,34.6,34.764,32.924,37.1a4.627,4.627,0,0,0-.857,3.469,4.478,4.478,0,0,0,5.124,3.771,4.638,4.638,0,0,0,3.063-1.848l2.481-3.428,4.14-.015c.559,3.255,3.657,6.144,6.787,6.144h7.021L69.954,51.8a3.031,3.031,0,0,1,1.225,1.944A2.874,2.874,0,0,1,70.691,55.928Zm-.514-5.967-8.974-6.4H53.663c-2.532,0-5.131-2.659-5.247-5.368l-.036-.78-6.475.022-2.962,4.09a3.009,3.009,0,0,1-1.993,1.2,2.854,2.854,0,0,1-3.276-2.407,3.028,3.028,0,0,1,.565-2.269l2.553-3.563c1.237-1.833,3.84-1.975,4.608-1.975H61.1L72.846,47.934Z" transform="translate(-7.427 -22.123)" fill="#fff"/>
      </g>
    </g>
  </g>
</svg>
