<svg xmlns="http://www.w3.org/2000/svg" width="90" height="90" viewBox="0 0 90 90">
  <g id="Group_34955" data-name="Group 34955" transform="translate(-672.506 -489.506)">
    <rect id="Rectangle_8396" data-name="Rectangle 8396" width="90" height="90" rx="14" transform="translate(672.506 489.506)" fill="#3e64ff"/>
    <g id="noun_feedback_3332837" transform="translate(687.518 504.518)">
      <g id="Group_21" data-name="Group 21" transform="translate(0 0)">
        <g id="Group_20" data-name="Group 20">
          <g id="Group_19" data-name="Group 19">
            <g id="Group_1" data-name="Group 1" transform="translate(0 40.099)">
              <path id="Path_1" data-name="Path 1" d="M61.7,71.572H5.764A2.317,2.317,0,0,1,3.45,69.258V63.3a.466.466,0,0,1,.466-.466H63.551a.466.466,0,0,1,.466.466v5.955A2.317,2.317,0,0,1,61.7,71.572Zm-57.321-7.8v5.489A1.384,1.384,0,0,0,5.764,70.64H61.7a1.384,1.384,0,0,0,1.383-1.383V63.768Z" transform="translate(-3.45 -62.837)" fill="#fff" stroke="#fff" stroke-width="0.5"/>
            </g>
            <g id="Group_2" data-name="Group 2">
              <path id="Path_2" data-name="Path 2" d="M63.551,44.481H3.916a.466.466,0,0,1-.466-.466V5.764A2.317,2.317,0,0,1,5.764,3.45H61.7a2.317,2.317,0,0,1,2.315,2.314v38.25A.466.466,0,0,1,63.551,44.481ZM4.382,43.549h58.7V5.764A1.384,1.384,0,0,0,61.7,4.382H5.764A1.384,1.384,0,0,0,4.382,5.764Z" transform="translate(-3.45 -3.45)" fill="#fff" stroke="#fff" stroke-width="0.5"/>
            </g>
            <g id="Group_3" data-name="Group 3" transform="translate(28.211 42.394)">
              <path id="Path_3" data-name="Path 3" d="M47.3,70.381a2.073,2.073,0,1,1,2.072-2.073A2.075,2.075,0,0,1,47.3,70.381Zm0-3.214a1.141,1.141,0,1,0,1.141,1.141A1.142,1.142,0,0,0,47.3,67.167Z" transform="translate(-45.231 -66.235)" fill="#fff" stroke="#fff" stroke-width="0.5"/>
            </g>
            <g id="Group_7" data-name="Group 7" transform="translate(19.018 47.903)">
              <g id="Group_5" data-name="Group 5" transform="translate(0 7.988)">
                <g id="Group_4" data-name="Group 4">
                  <path id="Path_4" data-name="Path 4" d="M53.681,90.9h-21.6a.466.466,0,0,1-.466-.466V88.147a1.924,1.924,0,0,1,1.922-1.922H52.225a1.924,1.924,0,0,1,1.922,1.922v2.288A.466.466,0,0,1,53.681,90.9Zm-21.133-.932H53.215V88.147a.991.991,0,0,0-.99-.99H33.538a.991.991,0,0,0-.99.99Z" transform="translate(-31.616 -86.225)" fill="#fff" stroke="#fff" stroke-width="0.5"/>
                </g>
              </g>
              <g id="Group_6" data-name="Group 6" transform="translate(2.49)">
                <path id="Path_5" data-name="Path 5" d="M52.389,83.314H35.769a.466.466,0,0,1-.444-.608l2.569-7.989a.466.466,0,0,1,.444-.323H49.82a.466.466,0,0,1,.444.323l2.569,7.989a.466.466,0,0,1-.444.608Zm-15.98-.932H51.749L49.48,75.326h-10.8Z" transform="translate(-35.303 -74.394)" fill="#fff" stroke="#fff" stroke-width="0.5"/>
              </g>
            </g>
            <g id="Group_18" data-name="Group 18" transform="translate(4.31 4.068)">
              <g id="Group_11" data-name="Group 11" transform="translate(1.522)">
                <g id="Group_8" data-name="Group 8" transform="translate(32.92 4.117)">
                  <path id="Path_6" data-name="Path 6" d="M72.191,29.28a.463.463,0,0,1-.217-.054l-3.941-2.072-3.941,2.072a.466.466,0,0,1-.676-.491l.753-4.388-3.189-3.108a.466.466,0,0,1,.258-.794l4.406-.641,1.971-3.992a.485.485,0,0,1,.835,0L70.422,19.8l4.406.641a.466.466,0,0,1,.258.794L71.9,24.347l.753,4.388a.466.466,0,0,1-.459.545Zm-4.158-3.118a.461.461,0,0,1,.217.054l3.322,1.746-.634-3.7a.466.466,0,0,1,.134-.412l2.688-2.62-3.714-.54a.465.465,0,0,1-.351-.255l-1.661-3.365-1.661,3.365a.465.465,0,0,1-.351.255l-3.714.54L65,23.851a.466.466,0,0,1,.134.412l-.634,3.7,3.322-1.746A.462.462,0,0,1,68.034,26.162Z" transform="translate(-60.841 -15.573)" fill="#fff" stroke="#fff" stroke-width="0.5"/>
                </g>
                <g id="Group_9" data-name="Group 9" transform="translate(16.46)">
                  <path id="Path_7" data-name="Path 7" d="M47.814,23.183a.466.466,0,0,1-.217-.054l-3.941-2.072-3.941,2.072a.466.466,0,0,1-.676-.491l.753-4.388L36.6,15.142a.466.466,0,0,1,.258-.794l4.406-.641,1.971-3.992a.485.485,0,0,1,.835,0l1.971,3.992,4.406.641a.466.466,0,0,1,.258.794L47.521,18.25l.753,4.388a.466.466,0,0,1-.459.545Zm-4.158-3.118a.464.464,0,0,1,.217.054L47.2,21.865l-.634-3.7a.466.466,0,0,1,.134-.412l2.688-2.62-3.714-.54a.465.465,0,0,1-.351-.255l-1.661-3.365L42,14.339a.465.465,0,0,1-.351.255l-3.714.54,2.688,2.62a.466.466,0,0,1,.134.412l-.634,3.7,3.322-1.747A.464.464,0,0,1,43.657,20.065Z" transform="translate(-36.464 -9.475)" fill="#fff" stroke="#fff" stroke-width="0.5"/>
                </g>
                <g id="Group_10" data-name="Group 10" transform="translate(0 4.117)">
                  <path id="Path_8" data-name="Path 8" d="M23.438,29.28a.463.463,0,0,1-.217-.054L19.28,27.155l-3.941,2.072a.466.466,0,0,1-.676-.491l.753-4.388-3.189-3.108a.466.466,0,0,1,.258-.794l4.406-.641,1.971-3.992a.485.485,0,0,1,.835,0L21.668,19.8l4.406.641a.466.466,0,0,1,.258.794l-3.189,3.108.753,4.389a.466.466,0,0,1-.459.545Zm-9.884-8.049,2.688,2.62a.466.466,0,0,1,.134.412l-.634,3.7,3.322-1.746a.462.462,0,0,1,.433,0l3.323,1.746-.635-3.7a.466.466,0,0,1,.134-.412l2.688-2.62-3.714-.54a.465.465,0,0,1-.351-.255L19.28,17.071l-1.661,3.365a.465.465,0,0,1-.351.255Z" transform="translate(-12.087 -15.573)" fill="#fff" stroke="#fff" stroke-width="0.5"/>
                </g>
              </g>
              <g id="Group_17" data-name="Group 17" transform="translate(0 21.086)">
                <g id="Group_12" data-name="Group 12">
                  <path id="Path_9" data-name="Path 9" d="M21.2,52.532H10.3a.466.466,0,0,1-.466-.466v-10.9A.466.466,0,0,1,10.3,40.7H21.2a.466.466,0,0,1,.466.466v10.9A.466.466,0,0,1,21.2,52.532ZM10.764,51.6H20.73V41.635H10.764Z" transform="translate(-9.832 -40.703)" fill="#fff" stroke="#fff" stroke-width="0.5"/>
                </g>
                <g id="Group_15" data-name="Group 15" transform="translate(14.709 1.805)">
                  <g id="Group_13" data-name="Group 13">
                    <path id="Path_10" data-name="Path 10" d="M68.389,44.309H32.082a.466.466,0,1,1,0-.932H68.389a.466.466,0,1,1,0,.932Z" transform="translate(-31.616 -43.377)" fill="#fff" stroke="#fff" stroke-width="0.5"/>
                  </g>
                  <g id="Group_14" data-name="Group 14" transform="translate(0 6.656)">
                    <path id="Path_11" data-name="Path 11" d="M54.5,54.166H32.082a.466.466,0,1,1,0-.932H54.5a.466.466,0,0,1,0,.932Z" transform="translate(-31.616 -53.234)" fill="#fff" stroke="#fff" stroke-width="0.5"/>
                  </g>
                </g>
                <g id="Group_16" data-name="Group 16" transform="translate(2.646 3.363)">
                  <path id="Path_12" data-name="Path 12" d="M15.651,50.787a.464.464,0,0,1-.329-.137l-1.434-1.434a.466.466,0,1,1,.659-.659l1.1,1.1,3.841-3.841a.466.466,0,0,1,.659.659l-4.17,4.171A.464.464,0,0,1,15.651,50.787Z" transform="translate(-13.751 -45.684)" fill="#fff" stroke="#fff" stroke-width="0.5"/>
                </g>
              </g>
            </g>
          </g>
        </g>
      </g>
    </g>
  </g>
</svg>
