<svg xmlns="http://www.w3.org/2000/svg" xmlns:xlink="http://www.w3.org/1999/xlink" width="82" height="82" viewBox="0 0 82 82">
  <defs>
    <clipPath id="clip-path">
      <path id="Path_17" data-name="Path 17" d="M520.532,707.9v38.54l-55.975-1.07V732.213h11.164V723.8h9.941v-6.729h11.012V710.8h14.252Z" transform="translate(-464.557 -707.896)" fill="#fff" stroke="#fff" stroke-width="0.5"/>
    </clipPath>
  </defs>
  <g id="Group_34954" data-name="Group 34954" transform="translate(-1216 -214)">
    <rect id="Rectangle_8394" data-name="Rectangle 8394" width="82" height="82" rx="14" transform="translate(1216 214)" fill="#eaba1b"/>
    <g id="Group_26" data-name="Group 26" transform="translate(1223 227)">
      <g id="noun_progress_3659793" transform="translate(0 0)">
        <path id="Path_13" data-name="Path 13" d="M-79.495,198.786a.649.649,0,0,0-.281.058l-4.387,1.175a.649.649,0,0,0-.459.795.649.649,0,0,0,.795.459l2.994-.8a33.89,33.89,0,0,1-2.969,4.242,32.21,32.21,0,0,1-4.532,4.52,31,31,0,0,1-5.171,3.42,30.1,30.1,0,0,1-5.637,2.27,29.386,29.386,0,0,1-5.93,1.074.649.649,0,0,0-.6.7.649.649,0,0,0,.7.6,30.735,30.735,0,0,0,6.192-1.122A31.439,31.439,0,0,0-92.9,213.8a32.3,32.3,0,0,0,5.387-3.562,33.52,33.52,0,0,0,4.715-4.7,35.137,35.137,0,0,0,3.075-4.392l.792,2.954a.649.649,0,0,0,.457.477.649.649,0,0,0,.638-.171.649.649,0,0,0,.157-.642l-1.169-4.363a.649.649,0,0,0-.3-.506h0l-.041-.025a.655.655,0,0,0-.11-.049h0l-.05-.017-.025,0-.033,0-.041,0h-.007l-.033,0Zm-35.217,9.639a3.326,3.326,0,0,0-3.32,3.312,3.326,3.326,0,0,0,3.32,3.313,3.327,3.327,0,0,0,3.32-3.313A3.326,3.326,0,0,0-114.712,208.425Zm0,1.3a2.009,2.009,0,0,1,2.023,2.015,2.009,2.009,0,0,1-2.023,2.015,2.009,2.009,0,0,1-2.022-2.015A2.009,2.009,0,0,1-114.712,209.723ZM-82.4,211.94a.644.644,0,0,0-.1.007l-4.08,0a.649.649,0,0,0-.649.648.649.649,0,0,0,.648.649l2.628,0a28.726,28.726,0,0,1-3.33,2.726,28.442,28.442,0,0,1-4.939,2.771,28.621,28.621,0,0,1-5.3,1.72,28.838,28.838,0,0,1-5.493.664.649.649,0,0,0-.568.334.649.649,0,0,0,.017.658.649.649,0,0,0,.584.3,30.336,30.336,0,0,0,5.74-.694,29.907,29.907,0,0,0,5.538-1.8,29.731,29.731,0,0,0,5.165-2.9,30.037,30.037,0,0,0,3.5-2.868l0,2.6a.649.649,0,0,0,.649.648.649.649,0,0,0,.648-.649l-.007-4a.649.649,0,0,0-.359-.756l-.017-.007-.017,0h0l-.025-.007-.017-.007a.648.648,0,0,0-.223-.033Zm-33.674,3.711c-.089,0-.18,0-.27,0h0a3.7,3.7,0,0,0-1.744.517c-.007,0,0,0-.017.007l-8.239,4.743a2.554,2.554,0,0,0-.935,3.482,2.565,2.565,0,0,0,3.488.933l2.55-1.469-.668,2.487c0,.007,0-.007,0,0l0,.017-1.284,4.779-6.286,3.619a2.556,2.556,0,0,0-.936,3.483,2.566,2.566,0,0,0,3.489.932l7.186-4.137a2.571,2.571,0,0,0,.511-.388,2.55,2.55,0,0,0,.7-1.177l.911-3.389,2.978,1.714v5.261a2.56,2.56,0,0,0,2.554,2.548,2.56,2.56,0,0,0,2.554-2.548v-6.594a2.693,2.693,0,0,0-.049-.648c-.007-.033-.007-.058-.017-.066v0a1.141,1.141,0,0,0-.033-.13c-.017-.058-.033-.114-.049-.165l-.007-.017c0,.007,0,0,0-.007A2.544,2.544,0,0,0-111.047,228l-3.165-1.822.949-3.533,4.516,2.6a2.565,2.565,0,0,0,3.488-.933,2.556,2.556,0,0,0-.935-3.483l-8.24-4.744a2.554,2.554,0,0,0-.7-.273h0l-.111-.033a3.707,3.707,0,0,0-.831-.126h0Zm-.041,1.3h0a2.431,2.431,0,0,1,.54.083h0a.286.286,0,0,1,.074.025l.049.017a1.206,1.206,0,0,1,.372.142l8.24,4.743a1.23,1.23,0,0,1,.459,1.708,1.244,1.244,0,0,1-1.718.459l-5.247-3.02a.649.649,0,0,0-.572-.037.649.649,0,0,0-.378.431l-1.3,4.83a.649.649,0,0,0,.3.73l3.625,2.087a.652.652,0,0,0,.066.033,1.25,1.25,0,0,1,.677.716l0,.007s0,0,0,0a.792.792,0,0,0,.025.083l0,0a.577.577,0,0,0,.017.066c0,.007,0,.025,0,.017l0,.017a1.035,1.035,0,0,1,.025.319q0,.017,0,.033v6.627a1.238,1.238,0,0,1-1.257,1.252,1.238,1.238,0,0,1-1.256-1.252v-5.636a.649.649,0,0,0-.326-.562l-4.033-2.324a.649.649,0,0,0-.572-.037.649.649,0,0,0-.378.431l-1.13,4.2a1.263,1.263,0,0,1-.344.578l-.007,0a1.5,1.5,0,0,1-.254.2l-7.186,4.137a1.244,1.244,0,0,1-1.718-.458,1.232,1.232,0,0,1,.46-1.708l6.519-3.753a.648.648,0,0,0,.3-.393l1.351-5.027v0l0-.007c0-.007,0,.007,0,0l0-.007,1.075-4a.649.649,0,0,0-.231-.683.649.649,0,0,0-.72-.048l-3.907,2.249a1.244,1.244,0,0,1-1.718-.459,1.23,1.23,0,0,1,.459-1.707l8.216-4.73h0l.017-.007.033-.017a2.39,2.39,0,0,1,1.129-.336c.058,0,.118,0,.179,0Zm30.95,2.071a.649.649,0,0,0-.649.649v6.472H-95.854a.649.649,0,0,0-.459.19.649.649,0,0,0-.19.459v6.473H-106.54a.649.649,0,0,0-.649.648v6.474h-10.037a.649.649,0,0,0-.649.649v10.682a.649.649,0,0,0,.649.649h42.743a.649.649,0,0,0,.649-.648v-3.18a6,6,0,0,0,5.344-5.954,6,6,0,0,0-5.344-5.954V219.667a.649.649,0,0,0-.649-.649Zm.649,1.3h9.389v16.31a6.008,6.008,0,0,0-5.1,4.285c0,.007,0,.017-.007.025-.025.074-.041.155-.066.234a.332.332,0,0,1-.017.066,1.6,1.6,0,0,0-.041.2.553.553,0,0,0-.017.11c-.007.058-.017.108-.025.163a1.157,1.157,0,0,0-.017.16,1.125,1.125,0,0,1-.017.125c-.007.066-.007.128-.017.193,0,.033,0,.066-.007.1q-.007.147-.007.3t.007.3c0,.033,0,.066.007.1,0,.066.007.131.017.2a1.116,1.116,0,0,0,.017.125,1.15,1.15,0,0,1,.017.16c.007.058.017.111.025.165.007.033.007.074.017.106.017.066.025.135.041.2a.331.331,0,0,0,.017.066c.017.074.041.154.058.231,0,.007,0,.017.007.025a6.009,6.009,0,0,0,5.1,4.284v2.531h-9.389V226.794ZM-95.2,227.437h9.388v23.628H-95.2V227.437Zm-10.686,7.122H-96.5v16.506h-9.389V234.559Zm31.409,3.329a4.684,4.684,0,0,1,4.694,4.692,4.684,4.684,0,0,1-4.694,4.693,4.684,4.684,0,0,1-4.694-4.693c0-.083,0-.162.007-.242a4.682,4.682,0,0,1,3.74-4.355,2.01,2.01,0,0,1,.232-.041,5.1,5.1,0,0,1,.716-.058Zm2.307,2.4a.649.649,0,0,0-.446.2l-2.826,2.825-.9-.894a.649.649,0,0,0-.465-.2.649.649,0,0,0-.6.4.649.649,0,0,0,.149.709l1.354,1.353.007,0,.025.025.017.017.033.025.025.017.033.017.025.007.033.017.025.007.033.007.033.007.033.007.033.007.033,0,.033,0h.066l.033,0,.025,0,.033,0,.033-.007.033-.007.033-.007.025-.007.041-.017.017-.007.033-.017.025-.017.033-.025.017-.017.033-.025.025-.025,3.285-3.284a.649.649,0,0,0,.146-.718.649.649,0,0,0-.617-.4Zm-44.4,1.4h9.389v9.385h-9.389Z" transform="translate(130.765 -198.782)" fill="#fff" stroke="#fff" stroke-width="0.5"/>
      </g>
      <g id="Mask_Group_1" data-name="Mask Group 1" transform="translate(11.643 17.126)" clip-path="url(#clip-path)">
        <g id="noun_progress_3659793-2" data-name="noun_progress_3659793" transform="translate(-11.643 -17.126)">
          <path id="Path_13-2" data-name="Path 13" d="M-79.495,198.786a.649.649,0,0,0-.281.058l-4.387,1.175a.649.649,0,0,0-.459.795.649.649,0,0,0,.795.459l2.994-.8a33.89,33.89,0,0,1-2.969,4.242,32.21,32.21,0,0,1-4.532,4.52,31,31,0,0,1-5.171,3.42,30.1,30.1,0,0,1-5.637,2.27,29.386,29.386,0,0,1-5.93,1.074.649.649,0,0,0-.6.7.649.649,0,0,0,.7.6,30.735,30.735,0,0,0,6.192-1.122A31.439,31.439,0,0,0-92.9,213.8a32.3,32.3,0,0,0,5.387-3.562,33.52,33.52,0,0,0,4.715-4.7,35.137,35.137,0,0,0,3.075-4.392l.792,2.954a.649.649,0,0,0,.457.477.649.649,0,0,0,.638-.171.649.649,0,0,0,.157-.642l-1.169-4.363a.649.649,0,0,0-.3-.506h0l-.041-.025a.655.655,0,0,0-.11-.049h0l-.05-.017-.025,0-.033,0-.041,0h-.007l-.033,0Zm-35.217,9.639a3.326,3.326,0,0,0-3.32,3.312,3.326,3.326,0,0,0,3.32,3.313,3.327,3.327,0,0,0,3.32-3.313A3.326,3.326,0,0,0-114.712,208.425Zm0,1.3a2.009,2.009,0,0,1,2.023,2.015,2.009,2.009,0,0,1-2.023,2.015,2.009,2.009,0,0,1-2.022-2.015A2.009,2.009,0,0,1-114.712,209.723ZM-82.4,211.94a.644.644,0,0,0-.1.007l-4.08,0a.649.649,0,0,0-.649.648.649.649,0,0,0,.648.649l2.628,0a28.726,28.726,0,0,1-3.33,2.726,28.442,28.442,0,0,1-4.939,2.771,28.621,28.621,0,0,1-5.3,1.72,28.838,28.838,0,0,1-5.493.664.649.649,0,0,0-.568.334.649.649,0,0,0,.017.658.649.649,0,0,0,.584.3,30.336,30.336,0,0,0,5.74-.694,29.907,29.907,0,0,0,5.538-1.8,29.731,29.731,0,0,0,5.165-2.9,30.037,30.037,0,0,0,3.5-2.868l0,2.6a.649.649,0,0,0,.649.648.649.649,0,0,0,.648-.649l-.007-4a.649.649,0,0,0-.359-.756l-.017-.007-.017,0h0l-.025-.007-.017-.007a.648.648,0,0,0-.223-.033Zm-33.674,3.711c-.089,0-.18,0-.27,0h0a3.7,3.7,0,0,0-1.744.517c-.007,0,0,0-.017.007l-8.239,4.743a2.554,2.554,0,0,0-.935,3.482,2.565,2.565,0,0,0,3.488.933l2.55-1.469-.668,2.487c0,.007,0-.007,0,0l0,.017-1.284,4.779-6.286,3.619a2.556,2.556,0,0,0-.936,3.483,2.566,2.566,0,0,0,3.489.932l7.186-4.137a2.571,2.571,0,0,0,.511-.388,2.55,2.55,0,0,0,.7-1.177l.911-3.389,2.978,1.714v5.261a2.56,2.56,0,0,0,2.554,2.548,2.56,2.56,0,0,0,2.554-2.548v-6.594a2.693,2.693,0,0,0-.049-.648c-.007-.033-.007-.058-.017-.066v0a1.141,1.141,0,0,0-.033-.13c-.017-.058-.033-.114-.049-.165l-.007-.017c0,.007,0,0,0-.007A2.544,2.544,0,0,0-111.047,228l-3.165-1.822.949-3.533,4.516,2.6a2.565,2.565,0,0,0,3.488-.933,2.556,2.556,0,0,0-.935-3.483l-8.24-4.744a2.554,2.554,0,0,0-.7-.273h0l-.111-.033a3.707,3.707,0,0,0-.831-.126h0Zm-.041,1.3h0a2.431,2.431,0,0,1,.54.083h0a.286.286,0,0,1,.074.025l.049.017a1.206,1.206,0,0,1,.372.142l8.24,4.743a1.23,1.23,0,0,1,.459,1.708,1.244,1.244,0,0,1-1.718.459l-5.247-3.02a.649.649,0,0,0-.572-.037.649.649,0,0,0-.378.431l-1.3,4.83a.649.649,0,0,0,.3.73l3.625,2.087a.652.652,0,0,0,.066.033,1.25,1.25,0,0,1,.677.716l0,.007s0,0,0,0a.792.792,0,0,0,.025.083l0,0a.577.577,0,0,0,.017.066c0,.007,0,.025,0,.017l0,.017a1.035,1.035,0,0,1,.025.319q0,.017,0,.033v6.627a1.238,1.238,0,0,1-1.257,1.252,1.238,1.238,0,0,1-1.256-1.252v-5.636a.649.649,0,0,0-.326-.562l-4.033-2.324a.649.649,0,0,0-.572-.037.649.649,0,0,0-.378.431l-1.13,4.2a1.263,1.263,0,0,1-.344.578l-.007,0a1.5,1.5,0,0,1-.254.2l-7.186,4.137a1.244,1.244,0,0,1-1.718-.458,1.232,1.232,0,0,1,.46-1.708l6.519-3.753a.648.648,0,0,0,.3-.393l1.351-5.027v0l0-.007c0-.007,0,.007,0,0l0-.007,1.075-4a.649.649,0,0,0-.231-.683.649.649,0,0,0-.72-.048l-3.907,2.249a1.244,1.244,0,0,1-1.718-.459,1.23,1.23,0,0,1,.459-1.707l8.216-4.73h0l.017-.007.033-.017a2.39,2.39,0,0,1,1.129-.336c.058,0,.118,0,.179,0Zm30.95,2.071a.649.649,0,0,0-.649.649v6.472H-95.854a.649.649,0,0,0-.459.19.649.649,0,0,0-.19.459v6.473H-106.54a.649.649,0,0,0-.649.648v6.474h-10.037a.649.649,0,0,0-.649.649v10.682a.649.649,0,0,0,.649.649h42.743a.649.649,0,0,0,.649-.648v-3.18a6,6,0,0,0,5.344-5.954,6,6,0,0,0-5.344-5.954V219.667a.649.649,0,0,0-.649-.649Zm.649,1.3h9.389v16.31a6.008,6.008,0,0,0-5.1,4.285c0,.007,0,.017-.007.025-.025.074-.041.155-.066.234a.332.332,0,0,1-.017.066,1.6,1.6,0,0,0-.041.2.553.553,0,0,0-.017.11c-.007.058-.017.108-.025.163a1.157,1.157,0,0,0-.017.16,1.125,1.125,0,0,1-.017.125c-.007.066-.007.128-.017.193,0,.033,0,.066-.007.1q-.007.147-.007.3t.007.3c0,.033,0,.066.007.1,0,.066.007.131.017.2a1.116,1.116,0,0,0,.017.125,1.15,1.15,0,0,1,.017.16c.007.058.017.111.025.165.007.033.007.074.017.106.017.066.025.135.041.2a.331.331,0,0,0,.017.066c.017.074.041.154.058.231,0,.007,0,.017.007.025a6.009,6.009,0,0,0,5.1,4.284v2.531h-9.389V226.794ZM-95.2,227.437h9.388v23.628H-95.2V227.437Zm-10.686,7.122H-96.5v16.506h-9.389V234.559Zm31.409,3.329a4.684,4.684,0,0,1,4.694,4.692,4.684,4.684,0,0,1-4.694,4.693,4.684,4.684,0,0,1-4.694-4.693c0-.083,0-.162.007-.242a4.682,4.682,0,0,1,3.74-4.355,2.01,2.01,0,0,1,.232-.041,5.1,5.1,0,0,1,.716-.058Zm2.307,2.4a.649.649,0,0,0-.446.2l-2.826,2.825-.9-.894a.649.649,0,0,0-.465-.2.649.649,0,0,0-.6.4.649.649,0,0,0,.149.709l1.354,1.353.007,0,.025.025.017.017.033.025.025.017.033.017.025.007.033.017.025.007.033.007.033.007.033.007.033.007.033,0,.033,0h.066l.033,0,.025,0,.033,0,.033-.007.033-.007.033-.007.025-.007.041-.017.017-.007.033-.017.025-.017.033-.025.017-.017.033-.025.025-.025,3.285-3.284a.649.649,0,0,0,.146-.718.649.649,0,0,0-.617-.4Zm-44.4,1.4h9.389v9.385h-9.389Z" transform="translate(130.765 -198.782)" fill="#fff" stroke="#fff" stroke-width="0.5"/>
        </g>
      </g>
    </g>
  </g>
</svg>
