<svg xmlns="http://www.w3.org/2000/svg" width="90" height="90" viewBox="0 0 90 90">
  <g id="Group_34956" data-name="Group 34956" transform="translate(-435 -159)">
    <rect id="Rectangle_8398" data-name="Rectangle 8398" width="90" height="90" rx="10" transform="translate(435 159)" fill="#0da49a"/>
    <g id="noun_service_986382" transform="translate(445.713 169.467)">
      <g id="Group_24" data-name="Group 24" transform="translate(0 0)">
        <g id="Group_23" data-name="Group 23" transform="translate(0 0)">
          <g id="Group_22" data-name="Group 22">
            <path id="Path_14" data-name="Path 14" d="M34.656,29.7l.624-.624L34.136,27.93l-2.6,2.6-2.393-2.393,5.1-5.1a5.206,5.206,0,0,0,4.577-1.352,4.982,4.982,0,0,0,1.144-5.305l-.312-1.144-2.289,2.289-1.352-.1V16.071L38.3,13.782l-1.144-.416a5.035,5.035,0,0,0-6.762,5.721l-5.1,5.1-3.849-3.849.416-2.08-4.473-3.537-2.6,2.6,3.537,4.473,2.08-.416,3.849,3.849-5.1,5.1a5.206,5.206,0,0,0-4.577,1.352,5,5,0,0,0-1.144,5.409l.416,1.144,2.289-2.289,1.248.1.1,1.352L15.2,39.684l1.144.416a4.711,4.711,0,0,0,1.664.312,4.954,4.954,0,0,0,3.537-1.456A5.006,5.006,0,0,0,22.9,34.379l5.1-5.1,2.393,2.393-2.6,2.6,1.144,1.144.624-.624,5.617,5.617a3.633,3.633,0,0,0,2.5,1.04h0a3.633,3.633,0,0,0,2.5-1.04,3.58,3.58,0,0,0,0-4.993Zm-15.708-9.57-2.08-2.6.624-.624,2.6,2.08-.208,1.04Zm2.393,13.731.1.416a3.662,3.662,0,0,1-.832,3.537,3.869,3.869,0,0,1-2.289,1.04l.832-.832-.312-3.329-3.329-.312-.832.832a3.386,3.386,0,0,1,1.04-2.393,3.431,3.431,0,0,1,3.537-.832l.416.1L32.264,19.5l-.1-.416a3.662,3.662,0,0,1,.832-3.537,3.584,3.584,0,0,1,2.393-1.04l-.832.832.312,3.329,3.329.312.832-.832a3.341,3.341,0,0,1-1.04,2.289,3.431,3.431,0,0,1-3.537.832l-.416-.1Zm17.788,5.305a1.831,1.831,0,0,1-1.352.624,1.677,1.677,0,0,1-1.352-.624l-5.617-5.617,2.809-2.809,5.617,5.617A2.2,2.2,0,0,1,39.129,39.164Z" transform="translate(7.349 7.315)" fill="#fff"/>
            <path id="Path_15" data-name="Path 15" d="M29.86,8.763a21.1,21.1,0,1,0,21.1,21.1A21.04,21.04,0,0,0,29.86,8.763Zm0,40.6A19.589,19.589,0,0,1,16.008,15.9,19.567,19.567,0,1,1,29.86,49.358Z" transform="translate(4.656 4.656)" fill="#fff" stroke="#fff" stroke-width="0.3"/>
            <path id="Path_16" data-name="Path 16" d="M61.822,40.606l7.072-1.372-.106-10.239-7.072-1.267a29.077,29.077,0,0,0-3.483-8.339l4.011-6.017L54.961,6.2,49.05,10.312a26.735,26.735,0,0,0-8.444-3.378L39.233-.138H28.995L27.728,6.934a29.077,29.077,0,0,0-8.339,3.483L13.373,6.406,6.2,13.8l4.117,5.911A25.775,25.775,0,0,0,6.934,28.15L-.138,29.522l.106,10.239L7.04,41.028a29.077,29.077,0,0,0,3.483,8.339L6.512,55.383,13.8,62.561l5.911-4.117a27.769,27.769,0,0,0,8.444,3.378l1.372,7.072,10.239-.106,1.267-7.072a29.077,29.077,0,0,0,8.339-3.483l6.017,4.011,7.178-7.283L58.444,49.05A27.768,27.768,0,0,0,61.822,40.606Zm-1.267,14.25-5.383,5.383-5.805-3.905-.422.317a23.625,23.625,0,0,1-8.866,3.694l-.528.106-1.267,6.861-7.6.106-1.267-6.861-.528-.106a27.04,27.04,0,0,1-8.866-3.589l-.422-.317-5.7,4.011L8.517,55.172l3.905-5.805-.317-.422a28.092,28.092,0,0,1-3.694-8.761l-.106-.528L1.445,38.389v-7.6l6.861-1.267.106-.528A27.04,27.04,0,0,1,12,20.128l.317-.422-4.011-5.7,5.278-5.489,5.7,3.905.422-.317a25.481,25.481,0,0,1,8.761-3.694l.528-.106,1.267-6.861h7.6l1.267,6.861.528.106A27.04,27.04,0,0,1,48.522,12l.422.317,5.7-4.011,5.383,5.383-3.905,5.7.317.422a25.15,25.15,0,0,1,3.694,8.866l.106.528L67.1,30.472v7.6l-6.861,1.267-.106.528a24.932,24.932,0,0,1-3.589,8.866l-.317.422Z" transform="translate(0.138 0.138)" fill="#fff" stroke="#fff" stroke-width="0.3"/>
          </g>
        </g>
      </g>
    </g>
  </g>
</svg>
