<svg id="Layer_1" data-name="Layer 1" xmlns="http://www.w3.org/2000/svg" viewBox="0 0 771.17 221.69">
<defs>
<style>
.cls-1{fill:#fff;}.cls-2{fill:#484a9f;}.cls-3{fill:#4669b2;}.cls-4{fill:#5985c4;}.cls-5{fill:#90bbe4;}.cls-6{fill:#afd7f2;}</style></defs><path class="cls-1" d="M286,107.16v38.15h-7.91V107.4c0-13.35-6.65-20.4-19.22-20.4-14,0-22.77,8.86-22.77,23.13v35.18h-7.91V53.37h7.91v36c5.26-6.46,13.36-10.05,23.12-10.05C276,79.32,286,89.73,286,107.16Z"/><path class="cls-1" d="M323.37,61.77a5.91,5.91,0,1,1-5.91-5.8A5.92,5.92,0,0,1,323.37,61.77Z"/><rect class="cls-1" x="313.57" y="79.8" width="7.91" height="65.51"/><polygon class="cls-1" points="402.36 79.8 372.44 145.31 365.96 145.31 336.04 79.8 344.71 79.8 369.26 134.08 393.81 79.8 402.36 79.8"/><path class="cls-1" d="M460.38,129.75c-4.26,5.39-11,8.36-18.94,8.36-11.63,0-20.67-6.35-24-16.72l52.69-10.47-.11-1.75c-1.06-17.29-13.82-29.85-30.32-29.85-18.27,0-31.52,14-31.52,33.18s14,33.17,33.18,33.17c10.1,0,18.81-3.84,24.54-10.81l1.09-1.33-5.12-5.63Zm-44.44-17.61c0-14.64,10-25.26,23.73-25.26,12.65,0,20.06,9.24,22,18.46L416,114.25C416,113.54,415.94,112.84,415.94,112.14Z"/><path class="cls-1" d="M523.58,79.32A30.07,30.07,0,0,0,499,91.18V79.8h-7.79v88.51h7.91V134.05a30.65,30.65,0,0,0,24.43,11.62c18.61,0,32.11-13.9,32.11-33C555.69,93.32,542.19,79.32,523.58,79.32Zm-.11,58.79c-14.32,0-24.32-10.48-24.32-25.49S509.15,87,523.47,87s24.31,10.53,24.31,25.62S537.78,138.11,523.47,138.11Z"/><path class="cls-1" d="M630,106.76a30.46,30.46,0,0,1,.38,3.22v-2.36Z"/><path class="cls-1" d="M626.48,79.8V91c-5.67-7.39-14.37-11.63-24.43-11.63-18.6,0-32.11,14-32.11,33.18s13.51,33.17,32.11,33.17c10.11,0,18.86-4.3,24.55-11.8v11.44h7.79V79.8Zm-24.31,58.31c-14.32,0-24.32-10.53-24.32-25.61s10-25.5,24.32-25.5,24.31,10.48,24.31,25.5S616.48,138.11,602.17,138.11ZM630.39,110a30.46,30.46,0,0,0-.38-3.22l.38.86Z"/><path class="cls-1" d="M666.35,132.14a13.23,13.23,0,0,0,1.3,3.55A14.63,14.63,0,0,1,666.35,132.14Z"/><path class="cls-1" d="M690.18,133.52l-1.68,1.59a12.43,12.43,0,0,1-8.58,3.12c-6.69,0-10.09-3.67-10.09-10.92V87.23H690.1V79.8H669.83V66.29h-7.91v61.62c0,11.12,6.6,17.76,17.65,17.76,5.44,0,10.56-1.8,13.71-4.82l1.24-1.2Zm-23.83-1.38a14.63,14.63,0,0,0,1.3,3.55A13.23,13.23,0,0,1,666.35,132.14Z"/><path class="cls-1" d="M717.36,105.89v1.67c0-.74.13-1.47.22-2.17Z"/><path class="cls-1" d="M744.4,79.32c-9.76,0-17.86,3.59-23.13,10.05v-36h-7.91v91.94h7.91V110.13C721.27,95.86,730,87,744.05,87c12.57,0,19.21,7,19.21,20.4v37.91h7.91V107.16C771.17,89.73,761.17,79.32,744.4,79.32Zm-27,28.24v-1.67l.22-.5C717.49,106.09,717.41,106.82,717.36,107.56Z"/><path class="cls-2" d="M6.56,70.68v-9a3.78,3.78,0,0,1,1.86-3.23l.42-.24,4.39-2.54,3-1.71a3.76,3.76,0,0,1,3.73,0l3,1.71,4.82,2.78a3.74,3.74,0,0,1,1.86,3.23v9a3.59,3.59,0,0,1-.46,1.77,3.55,3.55,0,0,1-1.4,1.45l-7.78,4.49a3.71,3.71,0,0,1-3.73,0l-4.58-2.65h0L8.42,73.9A3.71,3.71,0,0,1,6.56,70.68Z"/><path class="cls-2" d="M192,55.42V166.27L96,221.69,0,166.27H0V76.56s0,0,0,0A5.31,5.31,0,0,0,2,78.52l13.48,7.79a5.15,5.15,0,0,0,2.69.7,5.21,5.21,0,0,0,2.56-.7l13.49-7.79a5.23,5.23,0,0,0,2-2A5.16,5.16,0,0,0,36.8,74V58.4a5.29,5.29,0,0,0-2.63-4.55L20.68,46.07a5.16,5.16,0,0,0-3.36-.65L96,0Z"/><path class="cls-3" d="M6.56,70.68v-9a3.78,3.78,0,0,1,1.86-3.23l.42-.24,4.39-2.54h9.65l4.82,2.78a3.74,3.74,0,0,1,1.86,3.23v9a3.59,3.59,0,0,1-.46,1.77,3.55,3.55,0,0,1-1.4,1.45l-7.78,4.49a3.71,3.71,0,0,1-3.73,0l-4.58-2.65h0L8.42,73.9A3.71,3.71,0,0,1,6.56,70.68Z"/><path class="cls-3" d="M192,55.69V166.27h0L96,221.69,0,166.27H0V76.56s0,0,0,0A5.31,5.31,0,0,0,2,78.52l13.48,7.79a5.15,5.15,0,0,0,2.69.7,5.21,5.21,0,0,0,2.56-.7l13.49-7.79a5.23,5.23,0,0,0,2-2A5.16,5.16,0,0,0,36.8,74V58.4A5.2,5.2,0,0,0,36,55.69Z"/><path class="cls-4" d="M6.56,70.68v-9a3.78,3.78,0,0,1,1.86-3.23l.42-.24,20.72,6v6.5a3.59,3.59,0,0,1-.46,1.77,3.55,3.55,0,0,1-1.4,1.45l-7.78,4.49a3.71,3.71,0,0,1-3.73,0l-4.58-2.65h0L8.42,73.9A3.71,3.71,0,0,1,6.56,70.68Z"/><path class="cls-4" d="M192,110.84v55.43h0L96,221.69,0,166.27H0V76.56s0,0,0,0A5.31,5.31,0,0,0,2,78.52l13.48,7.79a5.15,5.15,0,0,0,2.69.7,5.21,5.21,0,0,0,2.56-.7l13.49-7.79a5.23,5.23,0,0,0,2-2A5.16,5.16,0,0,0,36.8,74V66.26L192,110.84Z"/><path class="cls-5" d="M6.56,70.68v-9a3.66,3.66,0,0,1,.54-1.92l22,12.67a3.55,3.55,0,0,1-1.4,1.45l-7.78,4.49a3.71,3.71,0,0,1-3.73,0l-4.58-2.65h0L8.42,73.9A3.71,3.71,0,0,1,6.56,70.68Z"/><path class="cls-5" d="M192,166.27,96,221.69,0,166.27V76.58A5.31,5.31,0,0,0,2,78.52l13.48,7.79a5.15,5.15,0,0,0,2.69.7,5.21,5.21,0,0,0,2.56-.7l13.49-7.79a5.23,5.23,0,0,0,2-2Z"/><path class="cls-6" d="M6.56,70.68V67l5,8.72L8.42,73.9A3.71,3.71,0,0,1,6.56,70.68Z"/><path class="cls-6" d="M96,221.69,0,166.27V76.58A5.31,5.31,0,0,0,2,78.52l13.48,7.79a5.15,5.15,0,0,0,2.69.7Z"/><path class="cls-1" d="M29.56,61.7v9a3.59,3.59,0,0,1-.46,1.77,3.55,3.55,0,0,1-1.4,1.45l-7.78,4.49a3.71,3.71,0,0,1-3.73,0l-4.58-2.65h0L8.42,73.9a3.71,3.71,0,0,1-1.86-3.22v-9a3.78,3.78,0,0,1,1.86-3.23l.42-.24,4.39-2.54,3-1.71a3.76,3.76,0,0,1,3.73,0l3,1.71,4.82,2.78A3.74,3.74,0,0,1,29.56,61.7Z"/><path class="cls-6" d="M29.56,61.7v9a3.59,3.59,0,0,1-.46,1.77,3.55,3.55,0,0,1-1.4,1.45l-7.78,4.49a3.71,3.71,0,0,1-3.73,0l-4.58-2.65h0L8.42,73.9a3.71,3.71,0,0,1-1.86-3.22v-9a3.78,3.78,0,0,1,1.86-3.23l.42-.24,4.39-2.54,3-1.71a3.76,3.76,0,0,1,3.73,0l3,1.71,4.82,2.78A3.74,3.74,0,0,1,29.56,61.7Z"/></svg>