<svg xmlns="http://www.w3.org/2000/svg" width="90" height="90" viewBox="0 0 90 90">
  <g id="Group_35197" data-name="Group 35197" transform="translate(-1303 -642)">
    <rect id="Rectangle_8402" data-name="Rectangle 8402" width="90" height="90" rx="14" transform="translate(1303 642)" fill="#f89146"/>
    <path id="noun_rewards_1112704" d="M37.824,5.968A1.442,1.442,0,0,0,36.54,7.432v4.325a1.442,1.442,0,1,0,2.884,0V7.432a1.442,1.442,0,0,0-1.464-1.464q-.068,0-.135,0ZM18.359,12.456a1.442,1.442,0,0,0-.969,2.388l6.488,7.93a1.457,1.457,0,1,0,2.253-1.847L19.643,13a1.442,1.442,0,0,0-1.149-.541q-.068,0-.135,0Zm38.929,0A1.442,1.442,0,0,0,56.32,13l-6.488,7.93a1.457,1.457,0,1,0,2.253,1.847l6.488-7.93a1.442,1.442,0,0,0-1.149-2.388Q57.356,12.453,57.288,12.456ZM37.869,21.13a1.442,1.442,0,0,0-1.126.676l-5.452,8.854L21.108,32.687a1.442,1.442,0,0,0-.721,2.433l7.434,7.434L26.469,52.67a1.442,1.442,0,0,0,1.983,1.509l9.53-4.078,9.53,4.078a1.442,1.442,0,0,0,1.983-1.509L48.142,42.554l7.434-7.434a1.442,1.442,0,0,0-.721-2.433L44.672,30.659l-5.452-8.854A1.442,1.442,0,0,0,37.869,21.13Zm.113,4.213,4.528,7.367a1.442,1.442,0,0,0,.946.653l8.178,1.645-6.015,6.015a1.442,1.442,0,0,0-.406,1.194l1.1,8.313L38.545,47.2a1.442,1.442,0,0,0-1.126,0L29.646,50.53l1.1-8.313a1.442,1.442,0,0,0-.406-1.194l-6.015-6.015,8.178-1.645a1.442,1.442,0,0,0,.946-.653Zm29.625,4.416a1.444,1.444,0,0,0-.2.023q-.057.009-.113.023l-4.325.721a1.442,1.442,0,1,0,.5,2.839l4.325-.721a1.445,1.445,0,0,0-.18-2.884Zm-59.385.023a1.442,1.442,0,0,0-.045,2.861l4.325.721a1.442,1.442,0,1,0,.5-2.839L8.672,29.8a1.442,1.442,0,0,0-.451-.023Zm47.693,14.4a1.447,1.447,0,0,0-.518,2.771l9.372,4.325a1.442,1.442,0,1,0,1.217-2.613l-9.372-4.325a1.442,1.442,0,0,0-.7-.158ZM19.869,44.2a1.442,1.442,0,0,0-.518.135L9.979,48.66A1.442,1.442,0,1,0,11.2,51.273l9.372-4.325a1.442,1.442,0,0,0-.7-2.748ZM37.824,56.432A1.442,1.442,0,0,0,36.54,57.9V67.989a1.442,1.442,0,1,0,2.884,0V57.9a1.442,1.442,0,0,0-1.464-1.464q-.068,0-.135,0ZM23.473,57.874a1.442,1.442,0,0,0-1.149.721l-2.163,3.6a1.445,1.445,0,1,0,2.478,1.487l2.163-3.6a1.442,1.442,0,0,0-1.329-2.208Zm28.836,0a1.442,1.442,0,0,0-1.149,2.208l2.163,3.6A1.445,1.445,0,1,0,55.8,62.2l-2.163-3.6A1.442,1.442,0,0,0,52.31,57.874Z" transform="translate(1309.961 649.301)" fill="#fff"/>
  </g>
</svg>
