<svg xmlns="http://www.w3.org/2000/svg" xmlns:xlink="http://www.w3.org/1999/xlink" width="388.242" height="250" viewBox="0 0 388.242 250">
  <defs>
    <linearGradient id="linear-gradient" x1="-0.011" y1="0.929" x2="1.658" y2="-1.564" gradientUnits="objectBoundingBox">
      <stop offset="0" stop-color="#224fb2"/>
      <stop offset="0.768" stop-color="#4268bd"/>
      <stop offset="1" stop-color="#fff"/>
    </linearGradient>
    <linearGradient id="linear-gradient-2" x1="0.5" x2="0.5" y2="1" gradientUnits="objectBoundingBox">
      <stop offset="0" stop-color="#fafafa"/>
      <stop offset="0.557" stop-color="#dfdfdf"/>
      <stop offset="1" stop-color="#d9d9d9"/>
      <stop offset="1" stop-color="#7d7d7d"/>
    </linearGradient>
  </defs>
  <g id="Group_35203" data-name="Group 35203" transform="translate(-852.758 -4461)">
    <g id="Group_35194" data-name="Group 35194" transform="translate(853 4461)">
      <rect id="Rectangle_8454" data-name="Rectangle 8454" width="388" height="250" rx="24" fill="#08b59b"/>
    </g>
    <g id="noun_Settings_1415279" transform="translate(964.141 4499.766)" opacity="0.1">
      <path id="Path_81959" data-name="Path 81959" d="M62.039,958.3a2.678,2.678,0,0,0-2.351,2.152A46.47,46.47,0,0,1,56.579,970.5c-1.4,2.949-3.09,4.765-4.543,5.141s-3.847-.385-6.5-2.271a45.884,45.884,0,0,1-7.572-7.253,2.678,2.678,0,0,0-3.347-.6,56.59,56.59,0,0,0-12.115,9.126,2.678,2.678,0,0,0-.359,3.387,47,47,0,0,1,4.941,9.285c1.1,3.059,1.156,5.529.4,6.814s-2.969,2.408-6.177,2.949a45.836,45.836,0,0,1-10.481.239,2.678,2.678,0,0,0-2.789,1.953,56.482,56.482,0,0,0-2.072,15.064,2.678,2.678,0,0,0,2.152,2.63,46.751,46.751,0,0,1,10,3.068c2.935,1.385,4.726,3.1,5.1,4.543s-.342,3.766-2.232,6.416a46.517,46.517,0,0,1-7.253,7.611,2.678,2.678,0,0,0-.6,3.348,56.074,56.074,0,0,0,9.126,12.115,2.678,2.678,0,0,0,3.347.359,46.911,46.911,0,0,1,9.325-4.942c3.075-1.1,5.571-1.154,6.854-.4s2.422,2.954,2.949,6.177a46.864,46.864,0,0,1,.2,10.521,2.678,2.678,0,0,0,1.953,2.789,56.325,56.325,0,0,0,14.9,2.112,2.678,2.678,0,0,0,2.63-2.152,45.856,45.856,0,0,1,3.148-10.042c1.413-2.95,3.129-4.764,4.583-5.141s3.809.369,6.456,2.272a47.007,47.007,0,0,1,7.572,7.293,2.678,2.678,0,0,0,3.347.6,56.773,56.773,0,0,0,12.194-9.206,2.678,2.678,0,0,0,.319-3.347,47,47,0,0,1-4.941-9.325c-1.109-3.073-1.2-5.566-.438-6.854s3-2.41,6.217-2.949a46.014,46.014,0,0,1,10.521-.239,2.678,2.678,0,0,0,2.789-1.953,55.893,55.893,0,0,0,2.072-14.9,2.678,2.678,0,0,0-2.152-2.67,46.047,46.047,0,0,1-10-3.109c-2.934-1.4-4.723-3.092-5.1-4.543s.341-3.809,2.232-6.456a46.656,46.656,0,0,1,7.253-7.572,2.678,2.678,0,0,0,.6-3.348,56.382,56.382,0,0,0-9.126-12.115,2.678,2.678,0,0,0-3.347-.359A46.773,46.773,0,0,1,89.3,979.5c-3.071,1.1-5.559,1.162-6.854.4s-2.409-2.973-2.949-6.177a45.8,45.8,0,0,1-.239-10.481,2.678,2.678,0,0,0-1.953-2.79A56,56,0,0,0,62.318,958.3a2.725,2.725,0,0,0-.279,0Zm.079,33.913a22.257,22.257,0,1,1-22.277,22.277,22.334,22.334,0,0,1,22.277-22.277Zm0,5.38a16.9,16.9,0,1,0,16.9,16.9A16.855,16.855,0,0,0,62.118,997.595Z" transform="translate(-5.969 -958.298)" fill="#fafafa"/>
    </g>
    <path id="Path_81960" data-name="Path 81960" d="M2843,4707s60.793-33.645,131.2,0,138.722-16.433,138.722-16.433,82.437-15.13,109.994,37.689" transform="translate(-1990 -25)" fill="none" stroke="#fff" stroke-width="1" opacity="0.1"/>
    <path id="Path_81961" data-name="Path 81961" d="M2843,4707s60.793-33.645,131.2,0,138.722-16.433,138.722-16.433,63.551-32.03,91.108,20.789,12.711,22.429,12.711,22.429" transform="translate(-1986.744 -48.933)" fill="none" stroke="#fff" stroke-width="1" opacity="0.1"/>
    <g id="Group_35202" data-name="Group 35202" transform="translate(920 4487)">
      <g id="Rectangle_8460" data-name="Rectangle 8460" transform="translate(175)" fill="#08b59b" stroke="#fff" stroke-width="1">
        <rect width="80" height="140" rx="11" stroke="none"/>
        <rect x="0.5" y="0.5" width="79" height="139" rx="10.5" fill="none"/>
      </g>
      <rect id="Rectangle_8461" data-name="Rectangle 8461" width="25" height="4" rx="2" transform="translate(203 8)" fill="#fff"/>
      <rect id="Rectangle_8465" data-name="Rectangle 8465" width="66" height="65" rx="5" transform="translate(182 25)" fill="#fff"/>
      <circle id="Ellipse_2218" data-name="Ellipse 2218" cx="3" cy="3" r="3" transform="translate(188 37)" fill="#e6e8ed"/>
      <circle id="Ellipse_2219" data-name="Ellipse 2219" cx="3" cy="3" r="3" transform="translate(188 42.47)" fill="#e6e8ed"/>
      <rect id="Rectangle_8466" data-name="Rectangle 8466" width="41" height="3" rx="1.5" transform="translate(196 39)" fill="#e6e8ed"/>
      <rect id="Rectangle_8467" data-name="Rectangle 8467" width="41" height="3" rx="1.5" transform="translate(196 44.318)" fill="#e6e8ed"/>
      <rect id="Rectangle_8468" data-name="Rectangle 8468" width="32" height="9" rx="4.5" transform="translate(212 61.822)" fill="#2f59b6"/>
      <g id="Group_35196" data-name="Group 35196" transform="translate(0 54)">
        <g id="Group_35195" data-name="Group 35195">
          <g id="Group_35193" data-name="Group 35193">
            <g id="Path_81958" data-name="Path 81958" fill="#24b6a0">
              <path d="M 215 143.5 L 10 143.5 C 4.761694431304932 143.5 0.5 139.2383117675781 0.5 134 L 0.5 10 C 0.5 4.761694431304932 4.761694431304932 0.5 10 0.5 L 215 0.5 C 220.2383117675781 0.5 224.5 4.761694431304932 224.5 10 L 224.5 134 C 224.5 139.2383117675781 220.2383117675781 143.5 215 143.5 Z" stroke="none"/>
              <path d="M 10 1 C 5.037384033203125 1 1 5.037384033203125 1 10 L 1 134 C 1 138.9626159667969 5.037384033203125 143 10 143 L 215 143 C 219.9626159667969 143 224 138.9626159667969 224 134 L 224 10 C 224 5.037384033203125 219.9626159667969 1 215 1 L 10 1 M 10 0 L 215 0 C 220.5228576660156 0 225 4.477142333984375 225 10 L 225 134 C 225 139.5228576660156 220.5228576660156 144 215 144 L 10 144 C 4.477142333984375 144 0 139.5228576660156 0 134 L 0 10 C 0 4.477142333984375 4.477142333984375 0 10 0 Z" stroke="none" fill="#fff"/>
            </g>
            <g id="Rectangle_8456" data-name="Rectangle 8456" fill="none" stroke="#fff" stroke-width="1">
              <rect width="225" height="144" rx="10" stroke="none"/>
              <rect x="0.5" y="0.5" width="224" height="143" rx="9.5" fill="none"/>
            </g>
            <g id="Rectangle_8457" data-name="Rectangle 8457" fill="none" stroke="#fff" stroke-width="1">
              <path d="M10,0H216a9,9,0,0,1,9,9V21a0,0,0,0,1,0,0H0a0,0,0,0,1,0,0V10A10,10,0,0,1,10,0Z" stroke="none"/>
              <path d="M10,.5H216A8.5,8.5,0,0,1,224.5,9V20a.5.5,0,0,1-.5.5H1A.5.5,0,0,1,.5,20V10A9.5,9.5,0,0,1,10,.5Z" fill="none"/>
            </g>
            <circle id="Ellipse_2213" data-name="Ellipse 2213" cx="3" cy="3" r="3" transform="translate(24 8)" fill="#f4d73a"/>
            <circle id="Ellipse_2215" data-name="Ellipse 2215" cx="3" cy="3" r="3" transform="translate(33 8)" fill="#77fc66"/>
            <circle id="Ellipse_2214" data-name="Ellipse 2214" cx="3" cy="3" r="3" transform="translate(15 8)" fill="#e25555"/>
          </g>
          <rect id="Rectangle_8458" data-name="Rectangle 8458" width="173" height="35" transform="translate(26 31)" fill="url(#linear-gradient)"/>
          <rect id="Rectangle_8459" data-name="Rectangle 8459" width="173" height="64" transform="translate(26 66)" fill="#fff"/>
        </g>
        <g id="noun_Settings_1415279-2" data-name="noun_Settings_1415279" transform="translate(177.513 40.215)">
          <path id="Path_81959-2" data-name="Path 81959" d="M10.386,958.3a.211.211,0,0,0-.185.169,3.658,3.658,0,0,1-.245.791.706.706,0,0,1-.358.405.712.712,0,0,1-.512-.179,3.609,3.609,0,0,1-.6-.571.211.211,0,0,0-.264-.047,4.453,4.453,0,0,0-.954.719.211.211,0,0,0-.028.267,3.708,3.708,0,0,1,.389.732.7.7,0,0,1,.031.537.709.709,0,0,1-.487.232,3.613,3.613,0,0,1-.826.019.211.211,0,0,0-.22.154,4.45,4.45,0,0,0-.163,1.187.211.211,0,0,0,.17.207,3.688,3.688,0,0,1,.788.242.483.483,0,0,1,.226.863,3.662,3.662,0,0,1-.571.6.211.211,0,0,0-.047.264,4.416,4.416,0,0,0,.719.954.211.211,0,0,0,.264.028,3.7,3.7,0,0,1,.735-.389.708.708,0,0,1,.54-.031.7.7,0,0,1,.232.487,3.693,3.693,0,0,1,.016.829.211.211,0,0,0,.154.22,4.439,4.439,0,0,0,1.174.166.211.211,0,0,0,.207-.17,3.614,3.614,0,0,1,.248-.791.713.713,0,0,1,.361-.405.7.7,0,0,1,.509.179,3.708,3.708,0,0,1,.6.574.211.211,0,0,0,.264.047,4.473,4.473,0,0,0,.961-.725.211.211,0,0,0,.025-.264,3.7,3.7,0,0,1-.389-.734.707.707,0,0,1-.035-.54.712.712,0,0,1,.49-.232,3.633,3.633,0,0,1,.829-.019.211.211,0,0,0,.22-.154,4.4,4.4,0,0,0,.163-1.174.211.211,0,0,0-.17-.21,3.627,3.627,0,0,1-.788-.245.485.485,0,0,1-.226-.866,3.674,3.674,0,0,1,.571-.6.211.211,0,0,0,.047-.264,4.444,4.444,0,0,0-.719-.954.211.211,0,0,0-.264-.028,3.679,3.679,0,0,1-.735.389.7.7,0,0,1-.54.031.707.707,0,0,1-.232-.487,3.607,3.607,0,0,1-.019-.826.211.211,0,0,0-.154-.22,4.412,4.412,0,0,0-1.18-.169Zm.006,2.672a1.753,1.753,0,1,1-1.755,1.755A1.759,1.759,0,0,1,10.392,960.97Zm0,.424a1.331,1.331,0,1,0,1.331,1.331A1.328,1.328,0,0,0,10.392,961.394Z" transform="translate(-5.969 -958.298)" fill="url(#linear-gradient-2)"/>
        </g>
        <circle id="Ellipse_2216" data-name="Ellipse 2216" cx="5" cy="5" r="5" transform="translate(35 77)" fill="#e6e8ed"/>
        <circle id="Ellipse_2217" data-name="Ellipse 2217" cx="5" cy="5" r="5" transform="translate(35 92)" fill="#e6e8ed"/>
        <rect id="Rectangle_8462" data-name="Rectangle 8462" width="95" height="6" rx="3" transform="translate(50 79)" fill="#e6e8ed"/>
        <rect id="Rectangle_8463" data-name="Rectangle 8463" width="95" height="6" rx="3" transform="translate(50 94)" fill="#e6e8ed"/>
        <rect id="Rectangle_8464" data-name="Rectangle 8464" width="38" height="12" rx="6" transform="translate(150 109)" fill="#2f59b6"/>
      </g>
    </g>
  </g>
</svg>
