<svg xmlns="http://www.w3.org/2000/svg" width="54" height="54" viewBox="0 0 54 54">
  <g id="Group_34960" data-name="Group 34960" transform="translate(-7226 -7881)">
    <rect id="Rectangle_8411" data-name="Rectangle 8411" width="54" height="54" rx="10" transform="translate(7226 7881)" fill="#fb5933"/>
    <g id="Group" transform="translate(7229.5 7887.4)">
      <g id="Compound_Path" transform="translate(7.59 0.6)">
        <path id="Path_81932" data-name="Path 81932" d="M20.994,23.079a1.593,1.593,0,0,1-1.128-.466,1.568,1.568,0,0,1-.466-1.128V2.194A1.6,1.6,0,0,1,20.994.6h29.17a1.6,1.6,0,0,1,1.594,1.594V21.485a1.6,1.6,0,0,1-1.594,1.594Zm0-21.7a.834.834,0,0,0-.827.827V21.5a.834.834,0,0,0,.827.827h29.17a.834.834,0,0,0,.827-.827V2.194a.834.834,0,0,0-.827-.827H20.994ZM49.352,20.673H42.841l-.045-.331a7.688,7.688,0,0,0-4.03-5.864l-.481-.256.406-.361A5.208,5.208,0,0,0,35.428,4.81a5.137,5.137,0,0,0-3.744,1.353,5.2,5.2,0,0,0-.346,7.338,3.754,3.754,0,0,0,.346.346l.406.361-.481.256a7.734,7.734,0,0,0-4.06,5.864l-.045.331h-5.7V3.021H49.337V20.673ZM43.5,19.906H48.57V3.788H22.558V19.906h4.27A8.44,8.44,0,0,1,30.8,14.057c-.015-.015-.015-.03-.03-.03a5.976,5.976,0,0,1,4.706-9.984A5.9,5.9,0,0,1,39.608,6a6,6,0,0,1-.03,8.074A8.369,8.369,0,0,1,43.5,19.906Z" transform="translate(-19.4 -0.6)" fill="#fff" stroke="#fff" stroke-width="0.6"/>
      </g>
      <g id="Path" transform="translate(29.693 24.311)">
        <path id="Path_81933" data-name="Path 81933" d="M176.354,174.356h-8.36a1.6,1.6,0,0,1-1.594-1.594v-2.21a5.734,5.734,0,0,1,2.045-4.345,4.849,4.849,0,1,1,7.5,0,5.79,5.79,0,0,1,2,4.345v2.21A1.6,1.6,0,0,1,176.354,174.356Zm-4.165-15.292h-.06A4.083,4.083,0,0,0,169.257,166l.3.316-.361.256a5.021,5.021,0,0,0-2.06,4v2.21a.834.834,0,0,0,.827.827h8.36a.834.834,0,0,0,.827-.827v-2.21a5.064,5.064,0,0,0-2.015-4l-.346-.256.3-.316a4.017,4.017,0,0,0,1.158-2.9,4.082,4.082,0,0,0-1.233-2.872A3.942,3.942,0,0,0,172.189,159.065Z" transform="translate(-166.4 -158.298)" fill="#fff" stroke="#fff" stroke-width="0.6"/>
      </g>
      <g id="Path-2" transform="translate(5.5 24.311)">
        <path id="Path_81934" data-name="Path 81934" d="M15.454,174.356H7.094A1.6,1.6,0,0,1,5.5,172.763v-2.21a5.79,5.79,0,0,1,2-4.345,4.851,4.851,0,0,1,7.142-6.541,4.875,4.875,0,0,1,.376,6.541,5.887,5.887,0,0,1,2.045,4.345v2.21A1.638,1.638,0,0,1,15.454,174.356Zm-4.21-15.292h-.06A4.083,4.083,0,0,0,8.312,166l.3.316-.346.256a5,5,0,0,0-2.015,4v2.21a.834.834,0,0,0,.827.827h8.36a.834.834,0,0,0,.827-.827v-2.21a5.043,5.043,0,0,0-2.06-4l-.361-.256.316-.316a4.1,4.1,0,0,0-.075-5.774A4,4,0,0,0,11.244,159.065Z" transform="translate(-5.5 -158.298)" fill="#fff" stroke="#fff" stroke-width="0.6"/>
      </g>
      <g id="Path-3" transform="translate(17.589 24.311)">
        <path id="Path_81935" data-name="Path 81935" d="M95.854,174.356h-8.36a1.6,1.6,0,0,1-1.594-1.594v-2.21a5.79,5.79,0,0,1,2-4.345,4.849,4.849,0,1,1,7.5,0,5.887,5.887,0,0,1,2.045,4.345v2.21A1.6,1.6,0,0,1,95.854,174.356Zm-4.2-15.292H91.6A4.083,4.083,0,0,0,88.727,166l.3.316-.346.256a5,5,0,0,0-2.015,4v2.21a.834.834,0,0,0,.827.827h8.36a.834.834,0,0,0,.827-.827v-2.21a5.043,5.043,0,0,0-2.06-4l-.361-.256.316-.316a4.017,4.017,0,0,0,1.158-2.9,4.082,4.082,0,0,0-1.233-2.872A4.028,4.028,0,0,0,91.659,159.065Z" transform="translate(-85.9 -158.298)" fill="#fff" stroke="#fff" stroke-width="0.6"/>
      </g>
    </g>
  </g>
</svg>
