<svg xmlns="http://www.w3.org/2000/svg" width="54" height="54" viewBox="0 0 54 54">
  <g id="Group_34962" data-name="Group 34962" transform="translate(-7688 -7884)">
    <rect id="Rectangle_8413" data-name="Rectangle 8413" width="54" height="54" rx="10" transform="translate(7688 7884)" fill="#0ea399"/>
    <g id="Mentors" transform="translate(7695 7884.9)">
      <g id="noun_Mentor_815899" transform="translate(2 6.1)">
        <path id="Path_81936" data-name="Path 81936" d="M25.187,32.759H4.59A2.6,2.6,0,0,1,2,30.169V8.69A2.6,2.6,0,0,1,4.59,6.1H27.832l-.556.57a5.8,5.8,0,0,0-.773,7.024l.2.339-.366.149a3.481,3.481,0,0,0-.909.556l-2.739,2.251-2.685-2.115a3.742,3.742,0,0,0-5.248.624,3.67,3.67,0,0,0-.773,2.753,3.735,3.735,0,0,0,1.4,2.5l.041.041,4.99,3.946A3.771,3.771,0,0,0,24.645,25l.515-.312v8.068ZM4.59,6.778A1.91,1.91,0,0,0,2.678,8.69V30.169A1.91,1.91,0,0,0,4.59,32.081H24.509V25.83a4.444,4.444,0,0,1-4.488-.583l-5.044-3.973a4.4,4.4,0,0,1-1.654-2.942,4.45,4.45,0,0,1,.909-3.254,4.4,4.4,0,0,1,2.942-1.654,4.45,4.45,0,0,1,3.254.909l2.264,1.79L25,14.209a4.3,4.3,0,0,1,.732-.488,6.529,6.529,0,0,1,.556-6.956H4.59Z" transform="translate(-2 -6.1)" fill="#fff" stroke="#fff" stroke-width="0.5"/>
      </g>
      <g id="Group_34958" data-name="Group 34958" transform="translate(15.612 6.114)">
        <g id="noun_Mentor_815899-2" transform="translate(0 0)">
          <path id="Path_81937" data-name="Path 81937" d="M115.769,45.754h-.149a2.156,2.156,0,0,1-2.007-2.278V20.655L110.779,23a2.042,2.042,0,0,1-2.576.027l-5-3.932a2.1,2.1,0,0,1-.542-2.7c.054-.081.108-.163.163-.231a2.014,2.014,0,0,1,1.37-.746,2.082,2.082,0,0,1,1.505.434l3.756,2.97,3.8-3.132a2.011,2.011,0,0,1,1.288-.475h7.39a3.27,3.27,0,0,1,3.268,3.268v7.336a3.287,3.287,0,0,1-2.359,3.146v14.55a2.147,2.147,0,0,1-2.142,2.142h-.637l.054-.081a2.152,2.152,0,0,1-1.573-2.061V32.994a.341.341,0,0,0-.271-.353h-.041a.33.33,0,0,0-.325.325V43.788A2.131,2.131,0,0,1,115.769,45.754ZM114.3,19.2V43.5a1.485,1.485,0,0,0,1.37,1.559,1.461,1.461,0,0,0,1.559-1.37V32.926a1,1,0,0,1,1-1,.716.716,0,0,1,.176.014,1.01,1.01,0,0,1,.827,1.031V43.476a1.467,1.467,0,0,0,1.464,1.464h.041a1.47,1.47,0,0,0,1.437-1.464V28.4l.271-.054a2.608,2.608,0,0,0,2.088-2.536V18.472a2.6,2.6,0,0,0-2.59-2.59h-7.39a1.377,1.377,0,0,0-.868.325l-4.217,3.485-4.19-3.322a1.343,1.343,0,0,0-1-.3,1.31,1.31,0,0,0-.909.5,1.347,1.347,0,0,0,.258,1.966l5,3.946a1.368,1.368,0,0,0,1.722-.014Zm3.932-4.732a4.136,4.136,0,1,1,4.136-4.136A4.144,4.144,0,0,1,118.237,14.472Zm0-7.607a3.458,3.458,0,1,0,3.458,3.458A3.464,3.464,0,0,0,118.237,6.864Z" transform="translate(-102.383 -6.2)" fill="#fff" stroke="#fff" stroke-width="0.6"/>
        </g>
      </g>
    </g>
  </g>
</svg>
