<svg xmlns="http://www.w3.org/2000/svg" width="54" height="54" viewBox="0 0 54 54">
  <g id="Group_34965" data-name="Group 34965" transform="translate(-8150 -7660)">
    <g id="Group_34964" data-name="Group 34964">
      <rect id="Rectangle_8415" data-name="Rectangle 8415" width="54" height="54" rx="10" transform="translate(8150 7660)" fill="#e0a322"/>
      <g id="noun_building_3969033" transform="translate(8163.635 7667.94)">
        <g id="Group_34994" transform="translate(-5.703 -0.939)">
          <g id="Group_34993" transform="translate(0 0)">
            <g id="Path_82262" transform="translate(0 0.003)">
              <path id="Path_81938" data-name="Path 81938" d="M18.487,40.6a.509.509,0,0,1-.136-.012l-.025-.012-16.9-5.508A1.188,1.188,0,0,1,.6,33.9V7.312a1.188,1.188,0,0,1,.831-1.166L18.338.625a.514.514,0,0,1,.2-.025.606.606,0,0,1,.583.62V39.976c0,.05-.012.087-.012.124A.656.656,0,0,1,18.487,40.6Zm0-39.364L1.615,6.728a.588.588,0,0,0-.409.571V33.9a.588.588,0,0,0,.409.571l16.872,5.5ZM13.326,32.855a.6.6,0,0,1-.149-.012l-2.915-.62a.715.715,0,0,1-.521-.658V27.508a.682.682,0,0,1,.633-.695.465.465,0,0,1,.136.012L13.4,27.2a.679.679,0,0,1,.608.695v4.292a.7.7,0,0,1-.186.484.648.648,0,0,1-.484.211C13.338,32.855,13.326,32.855,13.326,32.855Zm-2.9-1.241,2.891.62h.012a.064.064,0,0,0,.05-.025c.012-.012.012-.025.012-.05h0v-4.3a.057.057,0,0,0-.05-.062h-.012l-2.9-.372-.037-.31.012.31a.053.053,0,0,0-.05.05V31.54A.145.145,0,0,0,10.423,31.615Zm-3.809-.248a.6.6,0,0,1-.149-.012L4.381,30.9a.715.715,0,0,1-.521-.658V26.714a.682.682,0,0,1,.633-.695.465.465,0,0,1,.136.012l2.059.248a.67.67,0,0,1,.608.695v3.709a.7.7,0,0,1-.186.484.648.648,0,0,1-.484.211A.012.012,0,0,0,6.614,31.366ZM4.543,30.287l2.059.459h.012a.064.064,0,0,0,.05-.025c.012-.012.012-.025.012-.05h0V26.938a.057.057,0,0,0-.05-.062l-2.084-.248-.037-.31.012.31a.053.053,0,0,0-.05.05v3.536A.145.145,0,0,0,4.543,30.287Zm8.771-6.848h-.05l-2.878-.124a.678.678,0,0,1-.67-.682V18.564a.68.68,0,0,1,.682-.682l2.891-.124H13.3a.718.718,0,0,1,.72.658v4.342h0A.71.71,0,0,1,13.314,23.439Zm-2.928-.744h0l2.9.124.012.31.012-.31a.072.072,0,0,0,.074-.074v-4.28a.105.105,0,0,0-.1-.087l-2.9.124c-.025,0-.037.012-.05.012a.046.046,0,0,0-.012.037v4.057c0,.062.025.087.062.087ZM6.6,23.154h-.05l-2.059-.087a.7.7,0,0,1-.682-.682V18.861a.68.68,0,0,1,.682-.682l2.059-.087a.721.721,0,0,1,.732.658v3.722A.665.665,0,0,1,6.6,23.154Zm-2.1-.707h0l2.1.087a.072.072,0,0,0,.074-.074V18.8a.105.105,0,0,0-.1-.087L4.493,18.8a.059.059,0,0,0-.062.062v3.523a.079.079,0,0,0,.074.062Zm.05-7.295a.729.729,0,0,1-.447-.161.765.765,0,0,1-.248-.471V10.946a.7.7,0,0,1,.521-.67h.012l2.072-.459a.682.682,0,0,1,.819.521A.707.707,0,0,1,7.3,10.5v3.709a.657.657,0,0,1-.583.695H6.676l-2.059.248Zm-.012-4.268a.092.092,0,0,0-.062.074V14.47a.069.069,0,0,0,.074.062l2.1-.248c.025,0,.025-.012.025-.037V10.475a.068.068,0,0,0-.074-.05Zm5.893,3.573a.679.679,0,0,1-.682-.633V9.706a.7.7,0,0,1,.521-.67H10.3l2.9-.62a.666.666,0,0,1,.509.087.681.681,0,0,1,.3.434.707.707,0,0,1,.012.161V13.39a.657.657,0,0,1-.583.695H13.4l-2.9.372Zm-.012-4.826a.092.092,0,0,0-.062.074v4.057a.069.069,0,0,0,.074.062l2.928-.372c.012,0,.025-.012.025-.037V9.048c0-.025-.012-.037-.025-.037S13.338,9,13.314,9Z" transform="translate(-0.597 -0.6)" fill="#fff" stroke="#fff" stroke-width="0.6"/>
            </g>
            <g id="Path_82263" transform="translate(19.639)">
              <path id="Path_81939" data-name="Path 81939" d="M159.508,40.578a.591.591,0,0,1-.422-.174.563.563,0,0,1-.186-.434V1.19a.382.382,0,0,1,.012-.124.618.618,0,0,1,.732-.471l.025.012,16.9,5.508a1.188,1.188,0,0,1,.831,1.166v26.6a1.188,1.188,0,0,1-.831,1.166l-16.909,5.521h-.012a.383.383,0,0,1-.124.012Zm0-39.364V39.958l16.872-5.5a.588.588,0,0,0,.409-.571V7.294a.588.588,0,0,0-.409-.571h0Zm5.161,31.622a.665.665,0,0,1-.682-.695v-4.33a.657.657,0,0,1,.583-.695h.037l2.891-.372a.681.681,0,0,1,.757.62v4.168h0a.689.689,0,0,1-.521.658h-.025l-2.9.62A.446.446,0,0,1,164.669,32.837Zm2.891-5.483h0l-2.928.372c-.012,0-.025.012-.025.037v4.4c.012.037.037.062.074.05l2.891-.62a.079.079,0,0,0,.062-.074V27.428Q167.615,27.354,167.559,27.354Zm3.858,4.032a.665.665,0,0,1-.682-.695V27.019a.641.641,0,0,1,.149-.459.613.613,0,0,1,.434-.236h.037l2.059-.248a.665.665,0,0,1,.509.161.765.765,0,0,1,.248.471v3.536a.689.689,0,0,1-.521.658h-.012l-2.072.459A.315.315,0,0,1,171.417,31.386Zm2.059-4.689h0l-2.1.248a.027.027,0,0,0-.025.025v3.747c.012.037.037.062.074.05l2.059-.459a.079.079,0,0,0,.062-.074V26.758A.069.069,0,0,0,173.477,26.7Zm-8.808-3.275a.718.718,0,0,1-.72-.658v-4.33a.694.694,0,0,1,.707-.682h.037l2.891.124a.678.678,0,0,1,.67.682v4.069a.68.68,0,0,1-.682.682l-2.891.124Zm-.112-.695a.12.12,0,0,0,.1.087l2.9-.124a.059.059,0,0,0,.062-.062V18.571a.059.059,0,0,0-.062-.062h-.012l-2.915-.124h0a.08.08,0,0,0-.074.074Zm6.86.409a.718.718,0,0,1-.72-.658V18.719a.7.7,0,0,1,.211-.5.626.626,0,0,1,.5-.186h.037l2.059.087a.7.7,0,0,1,.682.682v3.573a.707.707,0,0,1-.2.484.685.685,0,0,1-.484.2l-2.059.087A.038.038,0,0,0,171.417,23.136Zm-.1-.707a.12.12,0,0,0,.1.087l2.084-.087a.054.054,0,0,0,.037-.012.046.046,0,0,0,.012-.037v-3.56a.059.059,0,0,0-.062-.062h-.012l-2.072-.087-.012-.31-.012.31a.094.094,0,0,0-.05.025.064.064,0,0,0-.025.05Zm2.159-7.295h-.062l-2.084-.248a.67.67,0,0,1-.608-.695V10.519a.688.688,0,0,1,.67-.695.655.655,0,0,1,.161.012l2.084.459a.715.715,0,0,1,.521.658v3.5A.665.665,0,0,1,173.477,15.134Zm-2.059-4.689h0a.059.059,0,0,0-.062.062v3.7a.057.057,0,0,0,.05.062l2.084.248c.037,0,.062-.025.062-.074V10.966a.092.092,0,0,0-.062-.074l-2.059-.459C171.43,10.445,171.43,10.445,171.417,10.445Zm-3.858,3.945h-.074l-2.891-.372a.679.679,0,0,1-.608-.695V9.03a.718.718,0,0,1,.186-.484.648.648,0,0,1,.484-.211.707.707,0,0,1,.161.012l2.915.62a.715.715,0,0,1,.521.658V13.7A.7.7,0,0,1,167.559,14.39Zm-2.891-5.434h0a.064.064,0,0,0-.05.025c-.012.012-.012.025-.012.05v4.317a.057.057,0,0,0,.05.062h.012l2.891.372a.069.069,0,0,0,.074-.062V9.651a.092.092,0,0,0-.062-.074l-2.891-.62Z" transform="translate(-158.9 -0.58)" fill="#fff" stroke="#fff" stroke-width="0.6"/>
            </g>
          </g>
        </g>
      </g>
    </g>
  </g>
</svg>
