<svg xmlns="http://www.w3.org/2000/svg" width="54" height="54" viewBox="0 0 54 54">
  <g id="Group_34959" data-name="Group 34959" transform="translate(-7226 -7660)">
    <rect id="Rectangle_8410" data-name="Rectangle 8410" width="54" height="54" rx="10" transform="translate(7226 7660)" fill="#1441ff"/>
    <g id="noun_student_675883" transform="translate(7220.6 7661.375)">
      <g id="Path_82264" transform="translate(22.015 4.625)">
        <path id="Path_81942" data-name="Path 81942" d="M63.448,26.549c-1.908,0-3.79-1.276-5.3-3.6a12.84,12.84,0,0,1-2.14-6.574,7.271,7.271,0,0,1,.541-2.771V11.157l-1.121-.49a.8.8,0,0,1-.064.619.953.953,0,0,1-.258.3l.387,5.246a2.707,2.707,0,0,1-.116.915l-.322.954c-.116.348-.335.374-.438.374s-.322-.039-.438-.387l-.309-.941a2.792,2.792,0,0,1-.116-.915l.374-5.259a.836.836,0,0,1-.335-.541.857.857,0,0,1,.142-.632.709.709,0,0,1,.3-.258l-.412-.155c-.541-.232-.619-.567-.619-.748s.077-.5.619-.748l8.469-3.661a3.379,3.379,0,0,1,2.307,0l.013.013L73.064,8.5c.541.232.619.567.619.748s-.077.5-.619.748l-2.72,1.186v2.436a7.384,7.384,0,0,1,.541,2.784,12.878,12.878,0,0,1-2.14,6.574C67.238,25.272,65.356,26.549,63.448,26.549ZM54.94,9.765l2.243.98v2.991l-.026.064a6.88,6.88,0,0,0-.516,2.591,12.116,12.116,0,0,0,2.037,6.226c1.882,2.875,3.79,3.3,4.769,3.3s2.887-.425,4.769-3.3a12.236,12.236,0,0,0,2.037-6.226,6.656,6.656,0,0,0-.516-2.6l-.026-.064V10.745L72.819,9.4a.491.491,0,0,0,.232-.155.491.491,0,0,0-.232-.155L64.363,5.434a2.666,2.666,0,0,0-1.843,0L54.077,9.082a.491.491,0,0,0-.232.155.491.491,0,0,0,.232.155l.206.09h0l.657.284Zm-.309,3.867L54.4,16.881a2.155,2.155,0,0,0,.09.7l.142.425.142-.438a2.455,2.455,0,0,0,.09-.7Zm-.013-2.926h-.026a.219.219,0,0,0-.129.077.306.306,0,0,0-.039.155.194.194,0,0,0,.142.155l.064.026.064-.026a.183.183,0,0,0,.116-.1.216.216,0,0,0,.013-.155.213.213,0,0,0-.155-.142Z" transform="translate(-53.2 -4.625)" fill="#fff" stroke="#fff" stroke-width="0.6"/>
      </g>
      <g id="Path_82265" transform="translate(17.4 24.783)">
        <path id="Path_81943" data-name="Path 81943" d="M32.263,182.978l-9.217-1.946a3.212,3.212,0,0,1-3.081-2.836,3.244,3.244,0,0,1-2.565-3.158v-1.869a3.281,3.281,0,0,1,1.611-2.8c-.013-.18-.013-.348-.013-.529a8.841,8.841,0,0,1,8.044-8.817l.335-.026.013.335c0,.245.258,1.057,2.5,3.055.98.877,1.972,1.65,2.372,1.959.4-.309,1.392-1.083,2.372-1.959,2.243-2,2.488-2.8,2.5-3.055l.013-.335.335.026a8.841,8.841,0,0,1,8.044,8.817c0,.18,0,.361-.013.529a3.237,3.237,0,0,1,1.611,2.8v1.869A3.23,3.23,0,0,1,44.56,178.2a3.212,3.212,0,0,1-3.081,2.836Zm-5.453-21.3a8.238,8.238,0,0,0-7.18,8.16,5.9,5.9,0,0,0,.039.683l.026.219-.193.1a2.607,2.607,0,0,0-1.457,2.32v1.869a2.611,2.611,0,0,0,2.269,2.578l.271.039.013.271A2.57,2.57,0,0,0,23.11,180.4l.064.013,9.114,1.921,9.165-1.934a2.579,2.579,0,0,0,2.514-2.475l.013-.271.271-.039a2.623,2.623,0,0,0,2.269-2.578v-1.869a2.584,2.584,0,0,0-1.457-2.32l-.193-.1.026-.219a5.939,5.939,0,0,0,.026-.683,8.238,8.238,0,0,0-7.18-8.16c-.142.464-.67,1.392-2.655,3.171-1.289,1.147-2.591,2.127-2.6,2.14l-.193.142-.193-.142c-.013-.013-1.315-.98-2.6-2.14C27.48,163.075,26.952,162.147,26.81,161.683Zm5.71,20.058V168.67l8.882-1.882h.039a2.05,2.05,0,0,1,1.985,2.05v1.714l-.271.039a2.6,2.6,0,0,0-2.256,2.565v1.869a2.6,2.6,0,0,0,2.256,2.565l.3.039-.013.3a2.059,2.059,0,0,1-2.05,1.934h-.026Zm.645-12.555v11.782l8.121-1.714h.09a1.412,1.412,0,0,0,1.366-1.057,3.245,3.245,0,0,1-2.488-3.145v-1.869a3.242,3.242,0,0,1,2.539-3.158V168.85a1.414,1.414,0,0,0-1.328-1.418ZM32,181.741l-8.856-1.856a2.059,2.059,0,0,1-2.05-1.934l-.013-.3.3-.039a2.6,2.6,0,0,0,2.256-2.565v-1.869a2.587,2.587,0,0,0-2.256-2.565l-.271-.039v-1.714a2.05,2.05,0,0,1,1.985-2.05h.039l.039.013,8.843,1.869v13.045Zm-10.222-3.558a1.412,1.412,0,0,0,1.366,1.057h.09l.039.013,8.1,1.714V169.185l-8.3-1.753a1.405,1.405,0,0,0-1.328,1.418v1.173a3.256,3.256,0,0,1,2.539,3.158v1.869A3.253,3.253,0,0,1,21.783,178.183Z" transform="translate(-17.4 -161)" fill="#fff" stroke="#fff" stroke-width="0.6"/>
      </g>
    </g>
  </g>
</svg>
