<svg xmlns="http://www.w3.org/2000/svg" width="54" height="54" viewBox="0 0 54 54">
  <g id="Group_34961" data-name="Group 34961" transform="translate(-8156 -7856)">
    <rect id="Rectangle_8414" data-name="Rectangle 8414" width="54" height="54" rx="10" transform="translate(8156 7856)" fill="#682fd9"/>
    <g id="noun_university_3883318" transform="translate(7164.8 7663.625)">
      <g id="Group_34996" transform="translate(997.2 200.375)">
        <g id="Group_34995" transform="translate(0 0)">
          <g id="Path_82266" transform="translate(0.046 27.952)">
            <path id="Path_81944" data-name="Path 81944" d="M21.656,188.174H3.142A1.061,1.061,0,0,1,2.1,187.1v-2.656a1.022,1.022,0,0,1,.322-.737,1.14,1.14,0,0,1,.752-.307H18.647l.092.077a3.273,3.273,0,0,0,.89.461l2.042.6v3.638Zm-18.5-4.038a.258.258,0,0,0-.215.092.3.3,0,0,0-.092.215V187.1a.312.312,0,0,0,.307.322H20.919v-2.349l-1.52-.445a4.072,4.072,0,0,1-1-.507H3.157Z" transform="translate(-2.098 -183.4)" fill="#fff" stroke="#fff" stroke-width="0.6"/>
          </g>
          <g id="Path_82267" transform="translate(24.24 13.367)">
            <path id="Path_81945" data-name="Path 81945" d="M159.7,96.168V88.4h4.728v6.524l-.338.031a4.845,4.845,0,0,0-1.136.246h-.015Zm.737-7.016V95.17l2.287-.675a5.061,5.061,0,0,1,.952-.23V89.152Z" transform="translate(-159.7 -88.4)" fill="#fff" stroke="#fff" stroke-width="0.6"/>
          </g>
          <g id="Path_82268" transform="translate(17.255 13.367)">
            <path id="Path_81946" data-name="Path 81946" d="M114.2,98.256V88.4h4.728v8.459Zm.752-9.1v8.106l3.239-.952V89.152Z" transform="translate(-114.2 -88.4)" fill="#fff" stroke="#fff" stroke-width="0.6"/>
          </g>
          <g id="Rectangle_8404" transform="translate(10.27 13.367)">
            <path id="Path_81947" data-name="Path 81947" d="M73.444,101.986H68.7V88.4h4.728v13.586Zm-3.991-.737h3.239v-12.1H69.452Z" transform="translate(-68.7 -88.4)" fill="#fff" stroke="#fff" stroke-width="0.6"/>
          </g>
          <g id="Rectangle_8405" transform="translate(3.255 13.367)">
            <path id="Path_81948" data-name="Path 81948" d="M27.728,101.986H23V88.4h4.728Zm-3.991-.737h3.239v-12.1H23.737Z" transform="translate(-23 -88.4)" fill="#fff" stroke="#fff" stroke-width="0.6"/>
          </g>
          <g id="Path_82269">
            <path id="Path_81949" data-name="Path 81949" d="M32.964,13.71H2.905A1.132,1.132,0,0,1,1.8,12.666V9.7a1.116,1.116,0,0,1,.583-.921l15.06-7.353a1.075,1.075,0,0,1,.921,0L33.424,8.8a1.01,1.01,0,0,1,.6.952v2.917a1.057,1.057,0,0,1-.322.752A1.087,1.087,0,0,1,32.964,13.71ZM2.905,12.958H32.948a.258.258,0,0,0,.215-.092.3.3,0,0,0,.092-.215V9.734a.269.269,0,0,0-.169-.261h-.015L18.027,2.1a.473.473,0,0,0-.292,0L2.69,9.473a.394.394,0,0,0-.184.292v2.871A.439.439,0,0,0,2.905,12.958Zm15-2.594A2.536,2.536,0,0,1,15.371,7.83a2.482,2.482,0,0,1,.722-1.781A2.511,2.511,0,0,1,17.873,5.3h.046a2.533,2.533,0,1,1-.015,5.066Zm-.031-4.329a1.812,1.812,0,1,0,.031,0Z" transform="translate(-1.8 -1.325)" fill="#fff" stroke="#fff" stroke-width="0.6"/>
          </g>
          <g id="Path_82270" transform="translate(21.277 29.256)">
            <path id="Path_81950" data-name="Path 81950" d="M148.826,199.714a16.026,16.026,0,0,1-4.421-.629l-2.564-.737a1.959,1.959,0,0,1-1.443-1.919v-4.483l6.325,1.873a6.625,6.625,0,0,0,1.965.292h0a7.778,7.778,0,0,0,1.98-.246l6.54-1.965v4.529a2.022,2.022,0,0,1-1.443,1.919l-2.564.737A15.462,15.462,0,0,1,148.826,199.714Zm-7.676-6.785v3.485a1.192,1.192,0,0,0,.89,1.2l2.564.737a14.856,14.856,0,0,0,8.428,0l2.564-.737a1.248,1.248,0,0,0,.906-1.2v-3.531l-5.588,1.673a8.841,8.841,0,0,1-2.18.276,7.042,7.042,0,0,1-2.2-.322Z" transform="translate(-140.398 -191.9)" fill="#fff" stroke="#fff" stroke-width="0.6"/>
          </g>
          <g id="Path_82271" transform="translate(17.289 21.584)">
            <path id="Path_81951" data-name="Path 81951" d="M137.457,153.143h-.384l-.6-.046c-.046-.015-.107-.031-.154-.046a.655.655,0,0,1-.353-.86l.4-.936a.9.9,0,0,1-.261-.645V150a.93.93,0,0,1,.307-.675V147.77l-8.029,2.38a5.6,5.6,0,0,1-3.255,0L115.2,147.2a1.078,1.078,0,0,1-.737-.737,1.089,1.089,0,0,1,.752-1.351l9.933-2.948a5.6,5.6,0,0,1,3.255,0l9.933,2.948a1.138,1.138,0,0,1,.8,1.09.991.991,0,0,1-.722.967l-.292.092v2.042a.923.923,0,0,1,.307.66v.645a1.01,1.01,0,0,1-.261.614l.414.983a.879.879,0,0,1,.061.215.671.671,0,0,1-.138.476.6.6,0,0,1-.43.23Zm-.353-.737h.322l.4-.031-.553-1.336-.568,1.336Zm.061-5.634v2.994l-.215.107a.148.148,0,0,0-.092.138v.6a.2.2,0,0,0,.123.184l.276.107.276-.138a.26.26,0,0,0,.138-.215v-.583a.148.148,0,0,0-.092-.138l-.215-.107V146.7l.829-.261a.262.262,0,0,0,.184-.261.365.365,0,0,0-.261-.368l-9.933-2.948a4.916,4.916,0,0,0-2.825,0l-9.933,2.948a.35.35,0,0,0,0,.675l9.933,2.948a4.916,4.916,0,0,0,2.825,0Z" transform="translate(-114.417 -141.925)" fill="#fff" stroke="#fff" stroke-width="0.6"/>
          </g>
        </g>
      </g>
    </g>
  </g>
</svg>
